<svg width="600" height="600" viewBox="0 0 600 600" xmlns="http://www.w3.org/2000/svg">
  <defs>
    <!-- Gradiente vertical en escala de grises: edita stop-color aqui -->
    <linearGradient id="bgGradient" x1="0%" y1="0%" x2="0%" y2="100%">
      <stop offset="0%" stop-color="#FCA3AF"/>
      <stop offset="100%" stop-color="#7873f5"/>
    </linearGradient>
    <clipPath id="cardClip">
      <rect x="0" y="0" width="600" height="600" rx="28" ry="28"/>
    </clipPath>
  </defs>

  <g clip-path="url(#cardClip)">
    <rect x="0" y="0" width="600" height="600" fill="url(#bgGradient)"/>

    <circle cx="300" cy="170" r="46" fill="#FFFFFF" opacity="0.12"/>
    <g transform="translate(300,170)">
      <g fill="none" stroke="#FFFFFF" stroke-width="6" stroke-linecap="round" stroke-linejoin="round">
  <circle cx="-8" cy="-8" r="16"/>
  <line x1="4" y1="4" x2="20" y2="20"/>
  <circle cx="-8" cy="-8" r="1.5" fill="#FFFFFF" stroke="none"/>
</g>
<path d="M-10 -16 l2.5 5.5 L-2 -8 l-5.5 2.5 L-10 0 l-2.5 -5.5 L-18 -8 l5.5 -2.5 Z" fill="#FFFFFF" stroke="none" transform="translate(2,-6) scale(0.55)"/>
    </g>

    <text x="300" y="285" text-anchor="middle"
          font-family="Arial, Helvetica, sans-serif" font-weight="800"
          font-size="52" fill="#FFFFFF">Hermes</text>

    <line x1="200" y1="318" x2="400" y2="318" stroke="#FFFFFF" stroke-width="2" opacity="0.7"/>

    <text x="300" y="368" text-anchor="middle"
          font-family="Arial, Helvetica, sans-serif" font-weight="400"
          font-size="25" fill="#FFFFFF" opacity="0.9">Find changes in collections</text>

    <text x="300" y="475" text-anchor="middle"
          font-family="Arial, Helvetica, sans-serif" font-weight="700"
          font-size="26" fill="#FFFFFF">Explore</text>
    <path d="M368 467 l16 8 l-16 8 M368 475 h20" stroke="#FFFFFF" stroke-width="3" fill="none" stroke-linecap="round" stroke-linejoin="round"/>
  </g>

  <rect x="1.5" y="1.5" width="597" height="597" rx="28" ry="28" fill="none" stroke="#FFFFFF" stroke-opacity="0.1" stroke-width="3"/>
</svg>
