<svg width="600" height="600" viewBox="0 0 600 600" xmlns="http://www.w3.org/2000/svg">
  <defs>
    <!-- Gradiente vertical en escala de grises: edita stop-color aqui -->
    <linearGradient id="bgGradient" x1="0%" y1="0%" x2="0%" y2="100%">
      <stop offset="0%" stop-color="#9CA3AF"/>
      <stop offset="100%" stop-color="#1F2937"/>
    </linearGradient>
    <clipPath id="cardClip">
      <rect x="0" y="0" width="600" height="600" rx="28" ry="28"/>
    </clipPath>
  </defs>

  <g clip-path="url(#cardClip)">
    <rect x="0" y="0" width="600" height="600" fill="url(#bgGradient)"/>

    <circle cx="300" cy="170" r="46" fill="#FFFFFF" opacity="0.12"/>
    <g transform="translate(300,170)">
      <g fill="none" stroke="#FFFFFF" stroke-width="6" stroke-linecap="round" stroke-linejoin="round">
  <line x1="-22" y1="22" x2="22" y2="22"/>
  <rect x="-16" y="-2" width="8" height="24" fill="#FFFFFF" stroke="none"/>
  <rect x="-4" y="-16" width="8" height="38" fill="#FFFFFF" stroke="none"/>
  <rect x="8" y="-8" width="8" height="30" fill="#FFFFFF" stroke="none"/>
</g>
    </g>

    <text x="300" y="285" text-anchor="middle"
          font-family="Arial, Helvetica, sans-serif" font-weight="800"
          font-size="52" fill="#FFFFFF">Statistics</text>

    <line x1="200" y1="318" x2="400" y2="318" stroke="#FFFFFF" stroke-width="2" opacity="0.7"/>

    <text x="300" y="368" text-anchor="middle"
          font-family="Arial, Helvetica, sans-serif" font-weight="400"
          font-size="25" fill="#FFFFFF" opacity="0.9">Useful statistics utilities</text>

    <text x="300" y="475" text-anchor="middle"
          font-family="Arial, Helvetica, sans-serif" font-weight="700"
          font-size="26" fill="#FFFFFF">Explore</text>
    <path d="M368 467 l16 8 l-16 8 M368 475 h20" stroke="#FFFFFF" stroke-width="3" fill="none" stroke-linecap="round" stroke-linejoin="round"/>
  </g>

  <rect x="1.5" y="1.5" width="597" height="597" rx="28" ry="28" fill="none" stroke="#FFFFFF" stroke-opacity="0.1" stroke-width="3"/>
</svg>
