<?xml version="1.0" encoding="UTF-8"?>
<svg viewBox="0 0 680 440" xmlns="http://www.w3.org/2000/svg" font-family="system-ui, -apple-system, 'Segoe UI', sans-serif" class="nr-chart">

<style>
  .nr-chart { --grid: #e1e0d9; --baseline: #c3c2b7; --text-primary: #0b0b0b; --text-secondary: #52514e; --muted: #898781; }
  @media (prefers-color-scheme: dark) {
    :root:not([data-theme="light"]) .nr-chart { --grid: #2c2c2a; --baseline: #383835; --text-primary: #ffffff; --text-secondary: #c3c2b7; --muted: #898781; }
  }
  :root[data-theme="dark"] .nr-chart { --grid: #2c2c2a; --baseline: #383835; --text-primary: #ffffff; --text-secondary: #c3c2b7; --muted: #898781; }
  .nr-chart .grid { stroke: var(--grid); stroke-width: 1; }
  .nr-chart .baseline { stroke: var(--baseline); stroke-width: 1.25; }
  .nr-chart .tick-label { fill: var(--muted); font-size: 12px; }
  .nr-chart .axis-label { fill: var(--text-secondary); font-size: 13px; }
  .nr-chart .title { fill: var(--text-primary); font-size: 15px; font-weight: 600; }
  .nr-chart .curve-label { font-size: 12.5px; font-weight: 600; }
  .nr-chart .asymptote { stroke: var(--muted); stroke-width: 1; stroke-dasharray: 3 3; }
</style>

<text x="50" y="18" class="title">Chi-squared distribution: probability density for several ν</text>
<line x1="50.00" y1="28" x2="50.00" y2="396.00" class="grid"/>
<text x="50.00" y="414" class="tick-label" text-anchor="middle">0</text>
<line x1="110.60" y1="28" x2="110.60" y2="396.00" class="grid"/>
<text x="110.60" y="414" class="tick-label" text-anchor="middle">2</text>
<line x1="171.20" y1="28" x2="171.20" y2="396.00" class="grid"/>
<text x="171.20" y="414" class="tick-label" text-anchor="middle">4</text>
<line x1="231.80" y1="28" x2="231.80" y2="396.00" class="grid"/>
<text x="231.80" y="414" class="tick-label" text-anchor="middle">6</text>
<line x1="292.40" y1="28" x2="292.40" y2="396.00" class="grid"/>
<text x="292.40" y="414" class="tick-label" text-anchor="middle">8</text>
<line x1="353.00" y1="28" x2="353.00" y2="396.00" class="grid"/>
<text x="353.00" y="414" class="tick-label" text-anchor="middle">10</text>
<line x1="413.60" y1="28" x2="413.60" y2="396.00" class="grid"/>
<text x="413.60" y="414" class="tick-label" text-anchor="middle">12</text>
<line x1="474.20" y1="28" x2="474.20" y2="396.00" class="grid"/>
<text x="474.20" y="414" class="tick-label" text-anchor="middle">14</text>
<line x1="534.80" y1="28" x2="534.80" y2="396.00" class="grid"/>
<text x="534.80" y="414" class="tick-label" text-anchor="middle">16</text>
<line x1="595.40" y1="28" x2="595.40" y2="396.00" class="grid"/>
<text x="595.40" y="414" class="tick-label" text-anchor="middle">18</text>
<line x1="656.00" y1="28" x2="656.00" y2="396.00" class="grid"/>
<text x="656.00" y="414" class="tick-label" text-anchor="middle">20</text>
<line x1="50" y1="396.00" x2="656.00" y2="396.00" class="grid"/>
<text x="40" y="400.00" class="tick-label" text-anchor="end">0</text>
<line x1="50" y1="322.40" x2="656.00" y2="322.40" class="grid"/>
<text x="40" y="326.40" class="tick-label" text-anchor="end">0.1</text>
<line x1="50" y1="248.80" x2="656.00" y2="248.80" class="grid"/>
<text x="40" y="252.80" class="tick-label" text-anchor="end">0.2</text>
<line x1="50" y1="175.20" x2="656.00" y2="175.20" class="grid"/>
<text x="40" y="179.20" class="tick-label" text-anchor="end">0.3</text>
<line x1="50" y1="101.60" x2="656.00" y2="101.60" class="grid"/>
<text x="40" y="105.60" class="tick-label" text-anchor="end">0.4</text>
<line x1="50" y1="28.00" x2="656.00" y2="28.00" class="grid"/>
<text x="40" y="32.00" class="tick-label" text-anchor="end">0.5</text>
<line x1="50" y1="396.00" x2="656.00" y2="396.00" class="baseline"/>
<line x1="50.00" y1="28" x2="50.00" y2="396.00" class="baseline"/>
<text x="353.00" y="434" class="axis-label" text-anchor="middle">χ²</text>
<text x="14" y="212.00" class="axis-label" text-anchor="middle" transform="rotate(-90 14 212.00)">p(χ²)</text>
<clipPath id="clip-4312688912"><rect x="50" y="28" width="606.00" height="368.00"/></clipPath>
<g clip-path="url(#clip-4312688912)">
<path d="M50.61,-156.00 L52.12,-156.00 L53.64,-156.00 L55.16,-156.00 L56.68,-156.00 L58.19,-97.28 L59.71,-45.90 L61.23,-4.79 L62.74,29.12 L64.26,57.76 L65.78,82.39 L67.30,103.87 L68.81,122.82 L70.33,139.71 L71.85,154.88 L73.37,168.61 L74.88,181.10 L76.40,192.52 L77.92,203.02 L79.43,212.71 L80.95,221.68 L82.47,230.01 L83.99,237.77 L85.50,245.01 L87.02,251.80 L88.54,258.16 L90.06,264.14 L91.57,269.77 L93.09,275.08 L94.61,280.09 L96.12,284.83 L97.64,289.32 L99.16,293.57 L100.68,297.61 L102.19,301.45 L103.71,305.10 L105.23,308.58 L106.75,311.88 L108.26,315.04 L109.78,318.05 L111.30,320.92 L112.81,323.67 L114.33,326.30 L115.85,328.81 L117.37,331.21 L118.88,333.51 L120.40,335.72 L121.92,337.83 L123.44,339.86 L124.95,341.80 L126.47,343.67 L127.99,345.46 L129.50,347.19 L131.02,348.84 L132.54,350.43 L134.06,351.96 L135.57,353.43 L137.09,354.85 L138.61,356.21 L140.13,357.52 L141.64,358.79 L143.16,360.00 L144.68,361.18 L146.19,362.31 L147.71,363.40 L149.23,364.45 L150.75,365.46 L152.26,366.44 L153.78,367.38 L155.30,368.29 L156.82,369.17 L158.33,370.01 L159.85,370.83 L161.37,371.62 L162.88,372.38 L164.40,373.12 L165.92,373.83 L167.44,374.52 L168.95,375.19 L170.47,375.83 L171.99,376.45 L173.51,377.05 L175.02,377.63 L176.54,378.20 L178.06,378.74 L179.57,379.26 L181.09,379.77 L182.61,380.26 L184.13,380.74 L185.64,381.20 L187.16,381.65 L188.68,382.08 L190.20,382.50 L191.71,382.90 L193.23,383.29 L194.75,383.67 L196.26,384.04 L197.78,384.40 L199.30,384.74 L200.82,385.07 L202.33,385.40 L203.85,385.71 L205.37,386.01 L206.89,386.31 L208.40,386.59 L209.92,386.87 L211.44,387.14 L212.95,387.40 L214.47,387.65 L215.99,387.89 L217.51,388.13 L219.02,388.36 L220.54,388.58 L222.06,388.80 L223.58,389.00 L225.09,389.21 L226.61,389.40 L228.13,389.59 L229.64,389.78 L231.16,389.96 L232.68,390.13 L234.20,390.30 L235.71,390.46 L237.23,390.62 L238.75,390.78 L240.27,390.93 L241.78,391.07 L243.30,391.21 L244.82,391.35 L246.33,391.48 L247.85,391.61 L249.37,391.74 L250.89,391.86 L252.40,391.97 L253.92,392.09 L255.44,392.20 L256.96,392.31 L258.47,392.41 L259.99,392.51 L261.51,392.61 L263.02,392.71 L264.54,392.80 L266.06,392.89 L267.58,392.98 L269.09,393.06 L270.61,393.14 L272.13,393.22 L273.65,393.30 L275.16,393.38 L276.68,393.45 L278.20,393.52 L279.72,393.59 L281.23,393.66 L282.75,393.72 L284.27,393.79 L285.78,393.85 L287.30,393.91 L288.82,393.97 L290.34,394.02 L291.85,394.08 L293.37,394.13 L294.89,394.18 L296.41,394.23 L297.92,394.28 L299.44,394.33 L300.96,394.38 L302.47,394.42 L303.99,394.47 L305.51,394.51 L307.03,394.55 L308.54,394.59 L310.06,394.63 L311.58,394.67 L313.10,394.70 L314.61,394.74 L316.13,394.77 L317.65,394.81 L319.16,394.84 L320.68,394.87 L322.20,394.90 L323.72,394.93 L325.23,394.96 L326.75,394.99 L328.27,395.02 L329.79,395.05 L331.30,395.07 L332.82,395.10 L334.34,395.12 L335.85,395.15 L337.37,395.17 L338.89,395.19 L340.41,395.21 L341.92,395.23 L343.44,395.26 L344.96,395.28 L346.48,395.30 L347.99,395.31 L349.51,395.33 L351.03,395.35 L352.54,395.37 L354.06,395.39 L355.58,395.40 L357.10,395.42 L358.61,395.43 L360.13,395.45 L361.65,395.47 L363.17,395.48 L364.68,395.49 L366.20,395.51 L367.72,395.52 L369.23,395.53 L370.75,395.55 L372.27,395.56 L373.79,395.57 L375.30,395.58 L376.82,395.59 L378.34,395.60 L379.86,395.62 L381.37,395.63 L382.89,395.64 L384.41,395.65 L385.92,395.65 L387.44,395.66 L388.96,395.67 L390.48,395.68 L391.99,395.69 L393.51,395.70 L395.03,395.71 L396.55,395.71 L398.06,395.72 L399.58,395.73 L401.10,395.74 L402.61,395.74 L404.13,395.75 L405.65,395.76 L407.17,395.76 L408.68,395.77 L410.20,395.78 L411.72,395.78 L413.24,395.79 L414.75,395.79 L416.27,395.80 L417.79,395.81 L419.30,395.81 L420.82,395.82 L422.34,395.82 L423.86,395.83 L425.37,395.83 L426.89,395.83 L428.41,395.84 L429.93,395.84 L431.44,395.85 L432.96,395.85 L434.48,395.86 L435.99,395.86 L437.51,395.86 L439.03,395.87 L440.55,395.87 L442.06,395.87 L443.58,395.88 L445.10,395.88 L446.62,395.88 L448.13,395.89 L449.65,395.89 L451.17,395.89 L452.68,395.90 L454.20,395.90 L455.72,395.90 L457.24,395.90 L458.75,395.91 L460.27,395.91 L461.79,395.91 L463.31,395.91 L464.82,395.92 L466.34,395.92 L467.86,395.92 L469.37,395.92 L470.89,395.92 L472.41,395.93 L473.93,395.93 L475.44,395.93 L476.96,395.93 L478.48,395.93 L480.00,395.94 L481.51,395.94 L483.03,395.94 L484.55,395.94 L486.06,395.94 L487.58,395.94 L489.10,395.94 L490.62,395.95 L492.13,395.95 L493.65,395.95 L495.17,395.95 L496.69,395.95 L498.20,395.95 L499.72,395.95 L501.24,395.96 L502.75,395.96 L504.27,395.96 L505.79,395.96 L507.31,395.96 L508.82,395.96 L510.34,395.96 L511.86,395.96 L513.38,395.96 L514.89,395.97 L516.41,395.97 L517.93,395.97 L519.44,395.97 L520.96,395.97 L522.48,395.97 L524.00,395.97 L525.51,395.97 L527.03,395.97 L528.55,395.97 L530.07,395.97 L531.58,395.97 L533.10,395.97 L534.62,395.98 L536.14,395.98 L537.65,395.98 L539.17,395.98 L540.69,395.98 L542.20,395.98 L543.72,395.98 L545.24,395.98 L546.76,395.98 L548.27,395.98 L549.79,395.98 L551.31,395.98 L552.83,395.98 L554.34,395.98 L555.86,395.98 L557.38,395.98 L558.89,395.98 L560.41,395.98 L561.93,395.98 L563.45,395.99 L564.96,395.99 L566.48,395.99 L568.00,395.99 L569.52,395.99 L571.03,395.99 L572.55,395.99 L574.07,395.99 L575.58,395.99 L577.10,395.99 L578.62,395.99 L580.14,395.99 L581.65,395.99 L583.17,395.99 L584.69,395.99 L586.21,395.99 L587.72,395.99 L589.24,395.99 L590.76,395.99 L592.27,395.99 L593.79,395.99 L595.31,395.99 L596.83,395.99 L598.34,395.99 L599.86,395.99 L601.38,395.99 L602.90,395.99 L604.41,395.99 L605.93,395.99 L607.45,395.99 L608.96,395.99 L610.48,395.99 L612.00,395.99 L613.52,395.99 L615.03,395.99 L616.55,395.99 L618.07,395.99 L619.59,395.99 L621.10,395.99 L622.62,395.99 L624.14,395.99 L625.65,395.99 L627.17,396.00 L628.69,396.00 L630.21,396.00 L631.72,396.00 L633.24,396.00 L634.76,396.00 L636.28,396.00 L637.79,396.00 L639.31,396.00 L640.83,396.00 L642.34,396.00 L643.86,396.00 L645.38,396.00 L646.90,396.00 L648.41,396.00 L649.93,396.00 L651.45,396.00 L652.97,396.00 L654.48,396.00 L656.00,396.00" fill="none" stroke="#2a78d6" stroke-width="2.25" stroke-linejoin="round" stroke-linecap="round"/>
</g>
<text x="66.67" y="35.36" class="curve-label" text-anchor="start" fill="#2a78d6">ν = 1</text>
<g clip-path="url(#clip-4312688912)">
<path d="M50.03,386.72 L51.55,331.29 L53.07,307.18 L54.59,290.09 L56.11,276.83 L57.62,266.13 L59.14,257.30 L60.66,249.93 L62.18,243.73 L63.70,238.52 L65.22,234.12 L66.74,230.44 L68.25,227.37 L69.77,224.84 L71.29,222.79 L72.81,221.15 L74.33,219.89 L75.85,218.97 L77.37,218.36 L78.89,218.01 L80.40,217.91 L81.92,218.03 L83.44,218.36 L84.96,218.86 L86.48,219.54 L88.00,220.36 L89.52,221.31 L91.04,222.40 L92.55,223.59 L94.07,224.88 L95.59,226.26 L97.11,227.73 L98.63,229.27 L100.15,230.88 L101.67,232.54 L103.19,234.26 L104.70,236.03 L106.22,237.84 L107.74,239.68 L109.26,241.56 L110.78,243.47 L112.30,245.39 L113.82,247.34 L115.34,249.31 L116.85,251.28 L118.37,253.27 L119.89,255.27 L121.41,257.27 L122.93,259.27 L124.45,261.27 L125.97,263.27 L127.49,265.27 L129.00,267.26 L130.52,269.25 L132.04,271.22 L133.56,273.19 L135.08,275.15 L136.60,277.09 L138.12,279.02 L139.63,280.94 L141.15,282.84 L142.67,284.72 L144.19,286.59 L145.71,288.44 L147.23,290.28 L148.75,292.09 L150.27,293.89 L151.78,295.66 L153.30,297.42 L154.82,299.15 L156.34,300.87 L157.86,302.56 L159.38,304.24 L160.90,305.89 L162.42,307.52 L163.93,309.13 L165.45,310.72 L166.97,312.28 L168.49,313.83 L170.01,315.35 L171.53,316.85 L173.05,318.33 L174.57,319.78 L176.08,321.22 L177.60,322.63 L179.12,324.02 L180.64,325.39 L182.16,326.74 L183.68,328.07 L185.20,329.37 L186.72,330.66 L188.23,331.92 L189.75,333.17 L191.27,334.39 L192.79,335.59 L194.31,336.77 L195.83,337.94 L197.35,339.08 L198.86,340.20 L200.38,341.31 L201.90,342.39 L203.42,343.46 L204.94,344.51 L206.46,345.53 L207.98,346.55 L209.50,347.54 L211.01,348.51 L212.53,349.47 L214.05,350.41 L215.57,351.33 L217.09,352.24 L218.61,353.13 L220.13,354.00 L221.65,354.86 L223.16,355.70 L224.68,356.53 L226.20,357.34 L227.72,358.13 L229.24,358.91 L230.76,359.68 L232.28,360.43 L233.80,361.16 L235.31,361.88 L236.83,362.59 L238.35,363.29 L239.87,363.97 L241.39,364.64 L242.91,365.29 L244.43,365.93 L245.95,366.56 L247.46,367.18 L248.98,367.79 L250.50,368.38 L252.02,368.96 L253.54,369.53 L255.06,370.09 L256.58,370.64 L258.10,371.18 L259.61,371.70 L261.13,372.22 L262.65,372.72 L264.17,373.22 L265.69,373.70 L267.21,374.18 L268.73,374.65 L270.24,375.10 L271.76,375.55 L273.28,375.99 L274.80,376.42 L276.32,376.84 L277.84,377.25 L279.36,377.65 L280.88,378.05 L282.39,378.43 L283.91,378.81 L285.43,379.18 L286.95,379.55 L288.47,379.90 L289.99,380.25 L291.51,380.59 L293.03,380.93 L294.54,381.25 L296.06,381.57 L297.58,381.89 L299.10,382.19 L300.62,382.50 L302.14,382.79 L303.66,383.08 L305.18,383.36 L306.69,383.64 L308.21,383.91 L309.73,384.17 L311.25,384.43 L312.77,384.68 L314.29,384.93 L315.81,385.18 L317.33,385.41 L318.84,385.65 L320.36,385.87 L321.88,386.10 L323.40,386.31 L324.92,386.53 L326.44,386.74 L327.96,386.94 L329.47,387.14 L330.99,387.34 L332.51,387.53 L334.03,387.72 L335.55,387.90 L337.07,388.08 L338.59,388.25 L340.11,388.43 L341.62,388.59 L343.14,388.76 L344.66,388.92 L346.18,389.08 L347.70,389.23 L349.22,389.38 L350.74,389.53 L352.26,389.67 L353.77,389.82 L355.29,389.95 L356.81,390.09 L358.33,390.22 L359.85,390.35 L361.37,390.48 L362.89,390.60 L364.41,390.72 L365.92,390.84 L367.44,390.95 L368.96,391.07 L370.48,391.18 L372.00,391.29 L373.52,391.39 L375.04,391.50 L376.56,391.60 L378.07,391.70 L379.59,391.79 L381.11,391.89 L382.63,391.98 L384.15,392.07 L385.67,392.16 L387.19,392.25 L388.71,392.33 L390.22,392.41 L391.74,392.49 L393.26,392.57 L394.78,392.65 L396.30,392.73 L397.82,392.80 L399.34,392.87 L400.85,392.94 L402.37,393.01 L403.89,393.08 L405.41,393.15 L406.93,393.21 L408.45,393.27 L409.97,393.34 L411.49,393.40 L413.00,393.46 L414.52,393.51 L416.04,393.57 L417.56,393.63 L419.08,393.68 L420.60,393.73 L422.12,393.78 L423.64,393.83 L425.15,393.88 L426.67,393.93 L428.19,393.98 L429.71,394.02 L431.23,394.07 L432.75,394.11 L434.27,394.16 L435.79,394.20 L437.30,394.24 L438.82,394.28 L440.34,394.32 L441.86,394.36 L443.38,394.40 L444.90,394.43 L446.42,394.47 L447.94,394.50 L449.45,394.54 L450.97,394.57 L452.49,394.60 L454.01,394.64 L455.53,394.67 L457.05,394.70 L458.57,394.73 L460.08,394.76 L461.60,394.79 L463.12,394.81 L464.64,394.84 L466.16,394.87 L467.68,394.89 L469.20,394.92 L470.72,394.94 L472.23,394.97 L473.75,394.99 L475.27,395.01 L476.79,395.04 L478.31,395.06 L479.83,395.08 L481.35,395.10 L482.87,395.12 L484.38,395.14 L485.90,395.16 L487.42,395.18 L488.94,395.20 L490.46,395.22 L491.98,395.24 L493.50,395.25 L495.02,395.27 L496.53,395.29 L498.05,395.31 L499.57,395.32 L501.09,395.34 L502.61,395.35 L504.13,395.37 L505.65,395.38 L507.17,395.40 L508.68,395.41 L510.20,395.42 L511.72,395.44 L513.24,395.45 L514.76,395.46 L516.28,395.48 L517.80,395.49 L519.32,395.50 L520.83,395.51 L522.35,395.52 L523.87,395.53 L525.39,395.54 L526.91,395.55 L528.43,395.57 L529.95,395.58 L531.46,395.59 L532.98,395.59 L534.50,395.60 L536.02,395.61 L537.54,395.62 L539.06,395.63 L540.58,395.64 L542.10,395.65 L543.61,395.66 L545.13,395.66 L546.65,395.67 L548.17,395.68 L549.69,395.69 L551.21,395.69 L552.73,395.70 L554.25,395.71 L555.76,395.72 L557.28,395.72 L558.80,395.73 L560.32,395.73 L561.84,395.74 L563.36,395.75 L564.88,395.75 L566.40,395.76 L567.91,395.76 L569.43,395.77 L570.95,395.78 L572.47,395.78 L573.99,395.79 L575.51,395.79 L577.03,395.80 L578.55,395.80 L580.06,395.80 L581.58,395.81 L583.10,395.81 L584.62,395.82 L586.14,395.82 L587.66,395.83 L589.18,395.83 L590.69,395.83 L592.21,395.84 L593.73,395.84 L595.25,395.85 L596.77,395.85 L598.29,395.85 L599.81,395.86 L601.33,395.86 L602.84,395.86 L604.36,395.87 L605.88,395.87 L607.40,395.87 L608.92,395.88 L610.44,395.88 L611.96,395.88 L613.48,395.88 L614.99,395.89 L616.51,395.89 L618.03,395.89 L619.55,395.89 L621.07,395.90 L622.59,395.90 L624.11,395.90 L625.63,395.90 L627.14,395.91 L628.66,395.91 L630.18,395.91 L631.70,395.91 L633.22,395.91 L634.74,395.92 L636.26,395.92 L637.78,395.92 L639.29,395.92 L640.81,395.92 L642.33,395.93 L643.85,395.93 L645.37,395.93 L646.89,395.93 L648.41,395.93 L649.93,395.93 L651.44,395.94 L652.96,395.94 L654.48,395.94 L656.00,395.94" fill="none" stroke="#1baf7a" stroke-width="2.25" stroke-linejoin="round" stroke-linecap="round"/>
</g>
<text x="110.60" y="223.04" class="curve-label" text-anchor="start" fill="#1baf7a">ν = 3</text>
<g clip-path="url(#clip-4312688912)">
<path d="M50.03,396.00 L51.55,395.88 L53.07,395.55 L54.59,395.02 L56.11,394.31 L57.62,393.43 L59.14,392.40 L60.66,391.22 L62.18,389.92 L63.70,388.50 L65.22,386.97 L66.74,385.35 L68.25,383.65 L69.77,381.86 L71.29,380.01 L72.81,378.11 L74.33,376.15 L75.85,374.15 L77.37,372.11 L78.89,370.04 L80.40,367.95 L81.92,365.85 L83.44,363.73 L84.96,361.61 L86.48,359.48 L88.00,357.36 L89.52,355.24 L91.04,353.13 L92.55,351.04 L94.07,348.97 L95.59,346.92 L97.11,344.89 L98.63,342.89 L100.15,340.92 L101.67,338.98 L103.19,337.07 L104.70,335.20 L106.22,333.37 L107.74,331.58 L109.26,329.82 L110.78,328.11 L112.30,326.44 L113.82,324.81 L115.34,323.23 L116.85,321.70 L118.37,320.21 L119.89,318.76 L121.41,317.36 L122.93,316.01 L124.45,314.71 L125.97,313.45 L127.49,312.25 L129.00,311.09 L130.52,309.97 L132.04,308.91 L133.56,307.89 L135.08,306.92 L136.60,305.99 L138.12,305.11 L139.63,304.28 L141.15,303.50 L142.67,302.75 L144.19,302.06 L145.71,301.40 L147.23,300.79 L148.75,300.23 L150.27,299.70 L151.78,299.22 L153.30,298.78 L154.82,298.37 L156.34,298.01 L157.86,297.69 L159.38,297.40 L160.90,297.15 L162.42,296.94 L163.93,296.77 L165.45,296.62 L166.97,296.52 L168.49,296.44 L170.01,296.40 L171.53,296.39 L173.05,296.42 L174.57,296.47 L176.08,296.55 L177.60,296.66 L179.12,296.80 L180.64,296.97 L182.16,297.16 L183.68,297.38 L185.20,297.62 L186.72,297.89 L188.23,298.18 L189.75,298.49 L191.27,298.83 L192.79,299.18 L194.31,299.56 L195.83,299.96 L197.35,300.37 L198.86,300.81 L200.38,301.26 L201.90,301.73 L203.42,302.21 L204.94,302.72 L206.46,303.23 L207.98,303.76 L209.50,304.31 L211.01,304.87 L212.53,305.44 L214.05,306.02 L215.57,306.62 L217.09,307.22 L218.61,307.84 L220.13,308.46 L221.65,309.10 L223.16,309.74 L224.68,310.40 L226.20,311.06 L227.72,311.72 L229.24,312.40 L230.76,313.08 L232.28,313.77 L233.80,314.46 L235.31,315.16 L236.83,315.86 L238.35,316.57 L239.87,317.28 L241.39,318.00 L242.91,318.72 L244.43,319.44 L245.95,320.16 L247.46,320.89 L248.98,321.62 L250.50,322.35 L252.02,323.08 L253.54,323.81 L255.06,324.54 L256.58,325.27 L258.10,326.00 L259.61,326.74 L261.13,327.47 L262.65,328.20 L264.17,328.93 L265.69,329.66 L267.21,330.39 L268.73,331.11 L270.24,331.84 L271.76,332.56 L273.28,333.28 L274.80,334.00 L276.32,334.71 L277.84,335.42 L279.36,336.13 L280.88,336.84 L282.39,337.54 L283.91,338.24 L285.43,338.94 L286.95,339.63 L288.47,340.32 L289.99,341.00 L291.51,341.68 L293.03,342.36 L294.54,343.03 L296.06,343.70 L297.58,344.36 L299.10,345.02 L300.62,345.67 L302.14,346.32 L303.66,346.96 L305.18,347.60 L306.69,348.24 L308.21,348.87 L309.73,349.49 L311.25,350.11 L312.77,350.72 L314.29,351.33 L315.81,351.94 L317.33,352.53 L318.84,353.13 L320.36,353.71 L321.88,354.30 L323.40,354.87 L324.92,355.44 L326.44,356.01 L327.96,356.57 L329.47,357.12 L330.99,357.67 L332.51,358.22 L334.03,358.75 L335.55,359.29 L337.07,359.81 L338.59,360.33 L340.11,360.85 L341.62,361.36 L343.14,361.87 L344.66,362.36 L346.18,362.86 L347.70,363.35 L349.22,363.83 L350.74,364.30 L352.26,364.78 L353.77,365.24 L355.29,365.70 L356.81,366.16 L358.33,366.61 L359.85,367.05 L361.37,367.49 L362.89,367.92 L364.41,368.35 L365.92,368.78 L367.44,369.19 L368.96,369.61 L370.48,370.01 L372.00,370.42 L373.52,370.81 L375.04,371.21 L376.56,371.59 L378.07,371.98 L379.59,372.35 L381.11,372.73 L382.63,373.09 L384.15,373.46 L385.67,373.81 L387.19,374.17 L388.71,374.51 L390.22,374.86 L391.74,375.20 L393.26,375.53 L394.78,375.86 L396.30,376.18 L397.82,376.51 L399.34,376.82 L400.85,377.13 L402.37,377.44 L403.89,377.74 L405.41,378.04 L406.93,378.34 L408.45,378.63 L409.97,378.91 L411.49,379.19 L413.00,379.47 L414.52,379.75 L416.04,380.02 L417.56,380.28 L419.08,380.54 L420.60,380.80 L422.12,381.06 L423.64,381.31 L425.15,381.55 L426.67,381.80 L428.19,382.04 L429.71,382.27 L431.23,382.51 L432.75,382.74 L434.27,382.96 L435.79,383.18 L437.30,383.40 L438.82,383.62 L440.34,383.83 L441.86,384.04 L443.38,384.24 L444.90,384.44 L446.42,384.64 L447.94,384.84 L449.45,385.03 L450.97,385.22 L452.49,385.41 L454.01,385.59 L455.53,385.78 L457.05,385.95 L458.57,386.13 L460.08,386.30 L461.60,386.47 L463.12,386.64 L464.64,386.80 L466.16,386.96 L467.68,387.12 L469.20,387.28 L470.72,387.43 L472.23,387.59 L473.75,387.74 L475.27,387.88 L476.79,388.03 L478.31,388.17 L479.83,388.31 L481.35,388.44 L482.87,388.58 L484.38,388.71 L485.90,388.84 L487.42,388.97 L488.94,389.10 L490.46,389.22 L491.98,389.34 L493.50,389.46 L495.02,389.58 L496.53,389.70 L498.05,389.81 L499.57,389.92 L501.09,390.03 L502.61,390.14 L504.13,390.25 L505.65,390.35 L507.17,390.46 L508.68,390.56 L510.20,390.66 L511.72,390.76 L513.24,390.85 L514.76,390.95 L516.28,391.04 L517.80,391.13 L519.32,391.22 L520.83,391.31 L522.35,391.39 L523.87,391.48 L525.39,391.56 L526.91,391.65 L528.43,391.73 L529.95,391.81 L531.46,391.88 L532.98,391.96 L534.50,392.04 L536.02,392.11 L537.54,392.18 L539.06,392.25 L540.58,392.32 L542.10,392.39 L543.61,392.46 L545.13,392.53 L546.65,392.59 L548.17,392.65 L549.69,392.72 L551.21,392.78 L552.73,392.84 L554.25,392.90 L555.76,392.96 L557.28,393.02 L558.80,393.07 L560.32,393.13 L561.84,393.18 L563.36,393.24 L564.88,393.29 L566.40,393.34 L567.91,393.39 L569.43,393.44 L570.95,393.49 L572.47,393.54 L573.99,393.58 L575.51,393.63 L577.03,393.67 L578.55,393.72 L580.06,393.76 L581.58,393.81 L583.10,393.85 L584.62,393.89 L586.14,393.93 L587.66,393.97 L589.18,394.01 L590.69,394.05 L592.21,394.08 L593.73,394.12 L595.25,394.16 L596.77,394.19 L598.29,394.23 L599.81,394.26 L601.33,394.30 L602.84,394.33 L604.36,394.36 L605.88,394.39 L607.40,394.42 L608.92,394.45 L610.44,394.48 L611.96,394.51 L613.48,394.54 L614.99,394.57 L616.51,394.60 L618.03,394.63 L619.55,394.65 L621.07,394.68 L622.59,394.71 L624.11,394.73 L625.63,394.76 L627.14,394.78 L628.66,394.80 L630.18,394.83 L631.70,394.85 L633.22,394.87 L634.74,394.90 L636.26,394.92 L637.78,394.94 L639.29,394.96 L640.81,394.98 L642.33,395.00 L643.85,395.02 L645.37,395.04 L646.89,395.06 L648.41,395.08 L649.93,395.09 L651.44,395.11 L652.96,395.13 L654.48,395.15 L656.00,395.16" fill="none" stroke="#eda100" stroke-width="2.25" stroke-linejoin="round" stroke-linecap="round"/>
</g>
<text x="210.59" y="296.64" class="curve-label" text-anchor="start" fill="#eda100">ν = 6</text>
<g clip-path="url(#clip-4312688912)">
<path d="M50.03,396.00 L51.55,396.00 L53.07,396.00 L54.59,396.00 L56.11,395.99 L57.62,395.98 L59.14,395.96 L60.66,395.94 L62.18,395.91 L63.70,395.86 L65.22,395.80 L66.74,395.73 L68.25,395.65 L69.77,395.55 L71.29,395.43 L72.81,395.29 L74.33,395.13 L75.85,394.95 L77.37,394.75 L78.89,394.53 L80.40,394.29 L81.92,394.02 L83.44,393.73 L84.96,393.41 L86.48,393.07 L88.00,392.70 L89.52,392.31 L91.04,391.89 L92.55,391.45 L94.07,390.98 L95.59,390.49 L97.11,389.98 L98.63,389.44 L100.15,388.87 L101.67,388.28 L103.19,387.67 L104.70,387.03 L106.22,386.38 L107.74,385.70 L109.26,385.00 L110.78,384.28 L112.30,383.53 L113.82,382.77 L115.34,381.99 L116.85,381.20 L118.37,380.38 L119.89,379.55 L121.41,378.70 L122.93,377.84 L124.45,376.97 L125.97,376.08 L127.49,375.18 L129.00,374.27 L130.52,373.34 L132.04,372.41 L133.56,371.47 L135.08,370.52 L136.60,369.56 L138.12,368.60 L139.63,367.63 L141.15,366.66 L142.67,365.68 L144.19,364.70 L145.71,363.72 L147.23,362.73 L148.75,361.75 L150.27,360.76 L151.78,359.78 L153.30,358.79 L154.82,357.81 L156.34,356.83 L157.86,355.86 L159.38,354.89 L160.90,353.93 L162.42,352.97 L163.93,352.01 L165.45,351.07 L166.97,350.13 L168.49,349.20 L170.01,348.28 L171.53,347.36 L173.05,346.46 L174.57,345.56 L176.08,344.68 L177.60,343.81 L179.12,342.95 L180.64,342.10 L182.16,341.27 L183.68,340.44 L185.20,339.63 L186.72,338.84 L188.23,338.05 L189.75,337.28 L191.27,336.53 L192.79,335.79 L194.31,335.06 L195.83,334.35 L197.35,333.66 L198.86,332.98 L200.38,332.32 L201.90,331.67 L203.42,331.04 L204.94,330.43 L206.46,329.83 L207.98,329.25 L209.50,328.68 L211.01,328.13 L212.53,327.60 L214.05,327.09 L215.57,326.59 L217.09,326.11 L218.61,325.65 L220.13,325.20 L221.65,324.77 L223.16,324.36 L224.68,323.96 L226.20,323.59 L227.72,323.22 L229.24,322.88 L230.76,322.55 L232.28,322.24 L233.80,321.95 L235.31,321.67 L236.83,321.41 L238.35,321.16 L239.87,320.94 L241.39,320.72 L242.91,320.53 L244.43,320.35 L245.95,320.18 L247.46,320.03 L248.98,319.90 L250.50,319.78 L252.02,319.68 L253.54,319.59 L255.06,319.52 L256.58,319.46 L258.10,319.42 L259.61,319.39 L261.13,319.37 L262.65,319.37 L264.17,319.38 L265.69,319.41 L267.21,319.44 L268.73,319.50 L270.24,319.56 L271.76,319.64 L273.28,319.73 L274.80,319.83 L276.32,319.94 L277.84,320.07 L279.36,320.21 L280.88,320.35 L282.39,320.51 L283.91,320.68 L285.43,320.87 L286.95,321.06 L288.47,321.26 L289.99,321.47 L291.51,321.69 L293.03,321.93 L294.54,322.17 L296.06,322.42 L297.58,322.68 L299.10,322.94 L300.62,323.22 L302.14,323.50 L303.66,323.80 L305.18,324.10 L306.69,324.40 L308.21,324.72 L309.73,325.04 L311.25,325.37 L312.77,325.71 L314.29,326.05 L315.81,326.40 L317.33,326.76 L318.84,327.12 L320.36,327.48 L321.88,327.86 L323.40,328.24 L324.92,328.62 L326.44,329.01 L327.96,329.40 L329.47,329.80 L330.99,330.20 L332.51,330.61 L334.03,331.02 L335.55,331.43 L337.07,331.85 L338.59,332.27 L340.11,332.70 L341.62,333.12 L343.14,333.56 L344.66,333.99 L346.18,334.43 L347.70,334.87 L349.22,335.31 L350.74,335.75 L352.26,336.20 L353.77,336.65 L355.29,337.09 L356.81,337.55 L358.33,338.00 L359.85,338.45 L361.37,338.91 L362.89,339.37 L364.41,339.82 L365.92,340.28 L367.44,340.74 L368.96,341.20 L370.48,341.66 L372.00,342.12 L373.52,342.58 L375.04,343.04 L376.56,343.51 L378.07,343.97 L379.59,344.43 L381.11,344.89 L382.63,345.35 L384.15,345.81 L385.67,346.27 L387.19,346.73 L388.71,347.18 L390.22,347.64 L391.74,348.10 L393.26,348.55 L394.78,349.00 L396.30,349.46 L397.82,349.91 L399.34,350.36 L400.85,350.81 L402.37,351.25 L403.89,351.70 L405.41,352.14 L406.93,352.59 L408.45,353.03 L409.97,353.47 L411.49,353.90 L413.00,354.34 L414.52,354.77 L416.04,355.20 L417.56,355.63 L419.08,356.06 L420.60,356.48 L422.12,356.90 L423.64,357.33 L425.15,357.74 L426.67,358.16 L428.19,358.57 L429.71,358.98 L431.23,359.39 L432.75,359.80 L434.27,360.20 L435.79,360.60 L437.30,361.00 L438.82,361.39 L440.34,361.79 L441.86,362.18 L443.38,362.56 L444.90,362.95 L446.42,363.33 L447.94,363.71 L449.45,364.09 L450.97,364.46 L452.49,364.83 L454.01,365.20 L455.53,365.57 L457.05,365.93 L458.57,366.29 L460.08,366.64 L461.60,367.00 L463.12,367.35 L464.64,367.70 L466.16,368.04 L467.68,368.38 L469.20,368.72 L470.72,369.06 L472.23,369.39 L473.75,369.72 L475.27,370.05 L476.79,370.37 L478.31,370.70 L479.83,371.01 L481.35,371.33 L482.87,371.64 L484.38,371.95 L485.90,372.26 L487.42,372.56 L488.94,372.87 L490.46,373.16 L491.98,373.46 L493.50,373.75 L495.02,374.04 L496.53,374.33 L498.05,374.61 L499.57,374.89 L501.09,375.17 L502.61,375.44 L504.13,375.72 L505.65,375.99 L507.17,376.25 L508.68,376.52 L510.20,376.78 L511.72,377.04 L513.24,377.29 L514.76,377.54 L516.28,377.79 L517.80,378.04 L519.32,378.29 L520.83,378.53 L522.35,378.77 L523.87,379.00 L525.39,379.24 L526.91,379.47 L528.43,379.70 L529.95,379.92 L531.46,380.15 L532.98,380.37 L534.50,380.59 L536.02,380.80 L537.54,381.02 L539.06,381.23 L540.58,381.44 L542.10,381.64 L543.61,381.85 L545.13,382.05 L546.65,382.25 L548.17,382.44 L549.69,382.64 L551.21,382.83 L552.73,383.02 L554.25,383.20 L555.76,383.39 L557.28,383.57 L558.80,383.75 L560.32,383.93 L561.84,384.10 L563.36,384.28 L564.88,384.45 L566.40,384.62 L567.91,384.79 L569.43,384.95 L570.95,385.11 L572.47,385.27 L573.99,385.43 L575.51,385.59 L577.03,385.74 L578.55,385.90 L580.06,386.05 L581.58,386.20 L583.10,386.34 L584.62,386.49 L586.14,386.63 L587.66,386.77 L589.18,386.91 L590.69,387.05 L592.21,387.18 L593.73,387.32 L595.25,387.45 L596.77,387.58 L598.29,387.71 L599.81,387.83 L601.33,387.96 L602.84,388.08 L604.36,388.20 L605.88,388.32 L607.40,388.44 L608.92,388.56 L610.44,388.67 L611.96,388.79 L613.48,388.90 L614.99,389.01 L616.51,389.12 L618.03,389.22 L619.55,389.33 L621.07,389.43 L622.59,389.54 L624.11,389.64 L625.63,389.74 L627.14,389.84 L628.66,389.93 L630.18,390.03 L631.70,390.12 L633.22,390.22 L634.74,390.31 L636.26,390.40 L637.78,390.49 L639.29,390.57 L640.81,390.66 L642.33,390.75 L643.85,390.83 L645.37,390.91 L646.89,390.99 L648.41,391.07 L649.93,391.15 L651.44,391.23 L652.96,391.31 L654.48,391.38 L656.00,391.46" fill="none" stroke="#e34948" stroke-width="2.25" stroke-linejoin="round" stroke-linecap="round"/>
</g>
<text x="307.55" y="318.72" class="curve-label" text-anchor="start" fill="#e34948">ν = 9</text>
</svg>