<?xml version="1.0" encoding="UTF-8"?>
<svg viewBox="0 0 680 420" xmlns="http://www.w3.org/2000/svg" font-family="system-ui, -apple-system, 'Segoe UI', sans-serif" class="nr-chart">

<style>
  .nr-chart { --grid: #e1e0d9; --baseline: #c3c2b7; --text-primary: #0b0b0b; --text-secondary: #52514e; --muted: #898781; }
  @media (prefers-color-scheme: dark) {
    :root:not([data-theme="light"]) .nr-chart { --grid: #2c2c2a; --baseline: #383835; --text-primary: #ffffff; --text-secondary: #c3c2b7; --muted: #898781; }
  }
  :root[data-theme="dark"] .nr-chart { --grid: #2c2c2a; --baseline: #383835; --text-primary: #ffffff; --text-secondary: #c3c2b7; --muted: #898781; }
  .nr-chart .grid { stroke: var(--grid); stroke-width: 1; }
  .nr-chart .baseline { stroke: var(--baseline); stroke-width: 1.25; }
  .nr-chart .tick-label { fill: var(--muted); font-size: 12px; }
  .nr-chart .axis-label { fill: var(--text-secondary); font-size: 13px; }
  .nr-chart .title { fill: var(--text-primary); font-size: 15px; font-weight: 600; }
  .nr-chart .curve-label { font-size: 12.5px; font-weight: 600; }
  .nr-chart .asymptote { stroke: var(--muted); stroke-width: 1; stroke-dasharray: 3 3; }
</style>

<text x="50" y="18" class="title">Error function erf(x) and complementary error function erfc(x)</text>
<line x1="50.00" y1="28" x2="50.00" y2="376.00" class="grid"/>
<text x="50.00" y="394" class="tick-label" text-anchor="middle">-3</text>
<line x1="151.00" y1="28" x2="151.00" y2="376.00" class="grid"/>
<text x="151.00" y="394" class="tick-label" text-anchor="middle">-2</text>
<line x1="252.00" y1="28" x2="252.00" y2="376.00" class="grid"/>
<text x="252.00" y="394" class="tick-label" text-anchor="middle">-1</text>
<line x1="353.00" y1="28" x2="353.00" y2="376.00" class="grid"/>
<text x="353.00" y="394" class="tick-label" text-anchor="middle">0</text>
<line x1="454.00" y1="28" x2="454.00" y2="376.00" class="grid"/>
<text x="454.00" y="394" class="tick-label" text-anchor="middle">1</text>
<line x1="555.00" y1="28" x2="555.00" y2="376.00" class="grid"/>
<text x="555.00" y="394" class="tick-label" text-anchor="middle">2</text>
<line x1="656.00" y1="28" x2="656.00" y2="376.00" class="grid"/>
<text x="656.00" y="394" class="tick-label" text-anchor="middle">3</text>
<line x1="50" y1="376.00" x2="656.00" y2="376.00" class="grid"/>
<text x="40" y="380.00" class="tick-label" text-anchor="end">-1</text>
<line x1="50" y1="260.00" x2="656.00" y2="260.00" class="grid"/>
<text x="40" y="264.00" class="tick-label" text-anchor="end">0</text>
<line x1="50" y1="144.00" x2="656.00" y2="144.00" class="grid"/>
<text x="40" y="148.00" class="tick-label" text-anchor="end">1</text>
<line x1="50" y1="28.00" x2="656.00" y2="28.00" class="grid"/>
<text x="40" y="32.00" class="tick-label" text-anchor="end">2</text>
<line x1="50" y1="260.00" x2="656.00" y2="260.00" class="baseline"/>
<line x1="353.00" y1="28" x2="353.00" y2="376.00" class="baseline"/>
<text x="353.00" y="414" class="axis-label" text-anchor="middle">x</text>
<text x="14" y="202.00" class="axis-label" text-anchor="middle" transform="rotate(-90 14 202.00)"></text>
<clipPath id="clip-4382321008"><rect x="50" y="28" width="606.00" height="348.00"/></clipPath>
<g clip-path="url(#clip-4382321008)">
<path d="M50.00,376.00 L52.03,376.00 L54.05,376.00 L56.08,376.00 L58.11,376.00 L60.13,376.00 L62.16,375.99 L64.19,375.99 L66.21,375.99 L68.24,375.99 L70.27,375.99 L72.29,375.99 L74.32,375.99 L76.35,375.99 L78.37,375.99 L80.40,375.98 L82.43,375.98 L84.45,375.98 L86.48,375.98 L88.51,375.98 L90.54,375.97 L92.56,375.97 L94.59,375.97 L96.62,375.96 L98.64,375.96 L100.67,375.95 L102.70,375.95 L104.72,375.94 L106.75,375.93 L108.78,375.93 L110.80,375.92 L112.83,375.91 L114.86,375.90 L116.88,375.89 L118.91,375.88 L120.94,375.87 L122.96,375.85 L124.99,375.84 L127.02,375.82 L129.04,375.80 L131.07,375.78 L133.10,375.76 L135.12,375.74 L137.15,375.71 L139.18,375.68 L141.20,375.65 L143.23,375.62 L145.26,375.58 L147.28,375.54 L149.31,375.50 L151.34,375.45 L153.36,375.40 L155.39,375.34 L157.42,375.28 L159.44,375.22 L161.47,375.15 L163.50,375.08 L165.53,375.00 L167.55,374.91 L169.58,374.81 L171.61,374.71 L173.63,374.61 L175.66,374.49 L177.69,374.36 L179.71,374.23 L181.74,374.09 L183.77,373.93 L185.79,373.77 L187.82,373.60 L189.85,373.41 L191.87,373.21 L193.90,373.00 L195.93,372.77 L197.95,372.53 L199.98,372.27 L202.01,372.00 L204.03,371.71 L206.06,371.40 L208.09,371.08 L210.11,370.73 L212.14,370.37 L214.17,369.98 L216.19,369.57 L218.22,369.14 L220.25,368.69 L222.27,368.21 L224.30,367.70 L226.33,367.17 L228.35,366.61 L230.38,366.02 L232.41,365.41 L234.43,364.76 L236.46,364.08 L238.49,363.37 L240.52,362.63 L242.54,361.85 L244.57,361.04 L246.60,360.19 L248.62,359.31 L250.65,358.39 L252.68,357.43 L254.70,356.43 L256.73,355.39 L258.76,354.31 L260.78,353.19 L262.81,352.03 L264.84,350.83 L266.86,349.58 L268.89,348.29 L270.92,346.95 L272.94,345.57 L274.97,344.15 L277.00,342.68 L279.02,341.17 L281.05,339.61 L283.08,338.00 L285.10,336.36 L287.13,334.66 L289.16,332.92 L291.18,331.14 L293.21,329.31 L295.24,327.44 L297.26,325.52 L299.29,323.56 L301.32,321.56 L303.34,319.52 L305.37,317.44 L307.40,315.32 L309.42,313.16 L311.45,310.96 L313.48,308.72 L315.51,306.45 L317.53,304.14 L319.56,301.81 L321.59,299.44 L323.61,297.04 L325.64,294.61 L327.67,292.16 L329.69,289.68 L331.72,287.18 L333.75,284.65 L335.77,282.11 L337.80,279.55 L339.83,276.98 L341.85,274.39 L343.88,271.79 L345.91,269.18 L347.93,266.56 L349.96,263.94 L351.99,261.31 L354.01,258.69 L356.04,256.06 L358.07,253.44 L360.09,250.82 L362.12,248.21 L364.15,245.61 L366.17,243.02 L368.20,240.45 L370.23,237.89 L372.25,235.35 L374.28,232.82 L376.31,230.32 L378.33,227.84 L380.36,225.39 L382.39,222.96 L384.41,220.56 L386.44,218.19 L388.47,215.86 L390.49,213.55 L392.52,211.28 L394.55,209.04 L396.58,206.84 L398.60,204.68 L400.63,202.56 L402.66,200.48 L404.68,198.44 L406.71,196.44 L408.74,194.48 L410.76,192.56 L412.79,190.69 L414.82,188.86 L416.84,187.08 L418.87,185.34 L420.90,183.64 L422.92,182.00 L424.95,180.39 L426.98,178.83 L429.00,177.32 L431.03,175.85 L433.06,174.43 L435.08,173.05 L437.11,171.71 L439.14,170.42 L441.16,169.17 L443.19,167.97 L445.22,166.81 L447.24,165.69 L449.27,164.61 L451.30,163.57 L453.32,162.57 L455.35,161.61 L457.38,160.69 L459.40,159.81 L461.43,158.96 L463.46,158.15 L465.48,157.37 L467.51,156.63 L469.54,155.92 L471.57,155.24 L473.59,154.59 L475.62,153.98 L477.65,153.39 L479.67,152.83 L481.70,152.30 L483.73,151.79 L485.75,151.31 L487.78,150.86 L489.81,150.43 L491.83,150.02 L493.86,149.63 L495.89,149.27 L497.91,148.92 L499.94,148.60 L501.97,148.29 L503.99,148.00 L506.02,147.73 L508.05,147.47 L510.07,147.23 L512.10,147.00 L514.13,146.79 L516.15,146.59 L518.18,146.40 L520.21,146.23 L522.23,146.07 L524.26,145.91 L526.29,145.77 L528.31,145.64 L530.34,145.51 L532.37,145.39 L534.39,145.29 L536.42,145.19 L538.45,145.09 L540.47,145.00 L542.50,144.92 L544.53,144.85 L546.56,144.78 L548.58,144.72 L550.61,144.66 L552.64,144.60 L554.66,144.55 L556.69,144.50 L558.72,144.46 L560.74,144.42 L562.77,144.38 L564.80,144.35 L566.82,144.32 L568.85,144.29 L570.88,144.26 L572.90,144.24 L574.93,144.22 L576.96,144.20 L578.98,144.18 L581.01,144.16 L583.04,144.15 L585.06,144.13 L587.09,144.12 L589.12,144.11 L591.14,144.10 L593.17,144.09 L595.20,144.08 L597.22,144.07 L599.25,144.07 L601.28,144.06 L603.30,144.05 L605.33,144.05 L607.36,144.04 L609.38,144.04 L611.41,144.03 L613.44,144.03 L615.46,144.03 L617.49,144.02 L619.52,144.02 L621.55,144.02 L623.57,144.02 L625.60,144.02 L627.63,144.01 L629.65,144.01 L631.68,144.01 L633.71,144.01 L635.73,144.01 L637.76,144.01 L639.79,144.01 L641.81,144.01 L643.84,144.01 L645.87,144.00 L647.89,144.00 L649.92,144.00 L651.95,144.00 L653.97,144.00 L656.00,144.00" fill="none" stroke="#2a78d6" stroke-width="2.25" stroke-linejoin="round" stroke-linecap="round"/>
</g>
<text x="525.65" y="138.28" class="curve-label" text-anchor="start" fill="#2a78d6">erf(x)</text>
<g clip-path="url(#clip-4382321008)">
<path d="M50.00,28.00 L52.03,28.00 L54.05,28.00 L56.08,28.00 L58.11,28.00 L60.13,28.00 L62.16,28.01 L64.19,28.01 L66.21,28.01 L68.24,28.01 L70.27,28.01 L72.29,28.01 L74.32,28.01 L76.35,28.01 L78.37,28.01 L80.40,28.02 L82.43,28.02 L84.45,28.02 L86.48,28.02 L88.51,28.02 L90.54,28.03 L92.56,28.03 L94.59,28.03 L96.62,28.04 L98.64,28.04 L100.67,28.05 L102.70,28.05 L104.72,28.06 L106.75,28.07 L108.78,28.07 L110.80,28.08 L112.83,28.09 L114.86,28.10 L116.88,28.11 L118.91,28.12 L120.94,28.13 L122.96,28.15 L124.99,28.16 L127.02,28.18 L129.04,28.20 L131.07,28.22 L133.10,28.24 L135.12,28.26 L137.15,28.29 L139.18,28.32 L141.20,28.35 L143.23,28.38 L145.26,28.42 L147.28,28.46 L149.31,28.50 L151.34,28.55 L153.36,28.60 L155.39,28.66 L157.42,28.72 L159.44,28.78 L161.47,28.85 L163.50,28.92 L165.53,29.00 L167.55,29.09 L169.58,29.19 L171.61,29.29 L173.63,29.39 L175.66,29.51 L177.69,29.64 L179.71,29.77 L181.74,29.91 L183.77,30.07 L185.79,30.23 L187.82,30.40 L189.85,30.59 L191.87,30.79 L193.90,31.00 L195.93,31.23 L197.95,31.47 L199.98,31.73 L202.01,32.00 L204.03,32.29 L206.06,32.60 L208.09,32.92 L210.11,33.27 L212.14,33.63 L214.17,34.02 L216.19,34.43 L218.22,34.86 L220.25,35.31 L222.27,35.79 L224.30,36.30 L226.33,36.83 L228.35,37.39 L230.38,37.98 L232.41,38.59 L234.43,39.24 L236.46,39.92 L238.49,40.63 L240.52,41.37 L242.54,42.15 L244.57,42.96 L246.60,43.81 L248.62,44.69 L250.65,45.61 L252.68,46.57 L254.70,47.57 L256.73,48.61 L258.76,49.69 L260.78,50.81 L262.81,51.97 L264.84,53.17 L266.86,54.42 L268.89,55.71 L270.92,57.05 L272.94,58.43 L274.97,59.85 L277.00,61.32 L279.02,62.83 L281.05,64.39 L283.08,66.00 L285.10,67.64 L287.13,69.34 L289.16,71.08 L291.18,72.86 L293.21,74.69 L295.24,76.56 L297.26,78.48 L299.29,80.44 L301.32,82.44 L303.34,84.48 L305.37,86.56 L307.40,88.68 L309.42,90.84 L311.45,93.04 L313.48,95.28 L315.51,97.55 L317.53,99.86 L319.56,102.19 L321.59,104.56 L323.61,106.96 L325.64,109.39 L327.67,111.84 L329.69,114.32 L331.72,116.82 L333.75,119.35 L335.77,121.89 L337.80,124.45 L339.83,127.02 L341.85,129.61 L343.88,132.21 L345.91,134.82 L347.93,137.44 L349.96,140.06 L351.99,142.69 L354.01,145.31 L356.04,147.94 L358.07,150.56 L360.09,153.18 L362.12,155.79 L364.15,158.39 L366.17,160.98 L368.20,163.55 L370.23,166.11 L372.25,168.65 L374.28,171.18 L376.31,173.68 L378.33,176.16 L380.36,178.61 L382.39,181.04 L384.41,183.44 L386.44,185.81 L388.47,188.14 L390.49,190.45 L392.52,192.72 L394.55,194.96 L396.58,197.16 L398.60,199.32 L400.63,201.44 L402.66,203.52 L404.68,205.56 L406.71,207.56 L408.74,209.52 L410.76,211.44 L412.79,213.31 L414.82,215.14 L416.84,216.92 L418.87,218.66 L420.90,220.36 L422.92,222.00 L424.95,223.61 L426.98,225.17 L429.00,226.68 L431.03,228.15 L433.06,229.57 L435.08,230.95 L437.11,232.29 L439.14,233.58 L441.16,234.83 L443.19,236.03 L445.22,237.19 L447.24,238.31 L449.27,239.39 L451.30,240.43 L453.32,241.43 L455.35,242.39 L457.38,243.31 L459.40,244.19 L461.43,245.04 L463.46,245.85 L465.48,246.63 L467.51,247.37 L469.54,248.08 L471.57,248.76 L473.59,249.41 L475.62,250.02 L477.65,250.61 L479.67,251.17 L481.70,251.70 L483.73,252.21 L485.75,252.69 L487.78,253.14 L489.81,253.57 L491.83,253.98 L493.86,254.37 L495.89,254.73 L497.91,255.08 L499.94,255.40 L501.97,255.71 L503.99,256.00 L506.02,256.27 L508.05,256.53 L510.07,256.77 L512.10,257.00 L514.13,257.21 L516.15,257.41 L518.18,257.60 L520.21,257.77 L522.23,257.93 L524.26,258.09 L526.29,258.23 L528.31,258.36 L530.34,258.49 L532.37,258.61 L534.39,258.71 L536.42,258.81 L538.45,258.91 L540.47,259.00 L542.50,259.08 L544.53,259.15 L546.56,259.22 L548.58,259.28 L550.61,259.34 L552.64,259.40 L554.66,259.45 L556.69,259.50 L558.72,259.54 L560.74,259.58 L562.77,259.62 L564.80,259.65 L566.82,259.68 L568.85,259.71 L570.88,259.74 L572.90,259.76 L574.93,259.78 L576.96,259.80 L578.98,259.82 L581.01,259.84 L583.04,259.85 L585.06,259.87 L587.09,259.88 L589.12,259.89 L591.14,259.90 L593.17,259.91 L595.20,259.92 L597.22,259.93 L599.25,259.93 L601.28,259.94 L603.30,259.95 L605.33,259.95 L607.36,259.96 L609.38,259.96 L611.41,259.97 L613.44,259.97 L615.46,259.97 L617.49,259.98 L619.52,259.98 L621.55,259.98 L623.57,259.98 L625.60,259.98 L627.63,259.99 L629.65,259.99 L631.68,259.99 L633.71,259.99 L635.73,259.99 L637.76,259.99 L639.79,259.99 L641.81,259.99 L643.84,259.99 L645.87,260.00 L647.89,260.00 L649.92,260.00 L651.95,260.00 L653.97,260.00 L656.00,260.00" fill="none" stroke="#eb6834" stroke-width="2.25" stroke-linejoin="round" stroke-linecap="round"/>
</g>
<text x="224.65" y="36.52" class="curve-label" text-anchor="start" fill="#eb6834">erfc(x)</text>
</svg>