<?xml version="1.0" encoding="UTF-8"?>
<svg viewBox="0 0 680 440" xmlns="http://www.w3.org/2000/svg" font-family="system-ui, -apple-system, 'Segoe UI', sans-serif" class="nr-chart">

<style>
  .nr-chart { --grid: #e1e0d9; --baseline: #c3c2b7; --text-primary: #0b0b0b; --text-secondary: #52514e; --muted: #898781; }
  @media (prefers-color-scheme: dark) {
    :root:not([data-theme="light"]) .nr-chart { --grid: #2c2c2a; --baseline: #383835; --text-primary: #ffffff; --text-secondary: #c3c2b7; --muted: #898781; }
  }
  :root[data-theme="dark"] .nr-chart { --grid: #2c2c2a; --baseline: #383835; --text-primary: #ffffff; --text-secondary: #c3c2b7; --muted: #898781; }
  .nr-chart .grid { stroke: var(--grid); stroke-width: 1; }
  .nr-chart .baseline { stroke: var(--baseline); stroke-width: 1.25; }
  .nr-chart .tick-label { fill: var(--muted); font-size: 12px; }
  .nr-chart .axis-label { fill: var(--text-secondary); font-size: 13px; }
  .nr-chart .title { fill: var(--text-primary); font-size: 15px; font-weight: 600; }
  .nr-chart .curve-label { font-size: 12.5px; font-weight: 600; }
  .nr-chart .asymptote { stroke: var(--muted); stroke-width: 1; stroke-dasharray: 3 3; }
</style>

<text x="56" y="18" class="title">Gamma function Γ(x)</text>
<line x1="116.67" y1="28" x2="116.67" y2="396.00" class="grid"/>
<text x="116.67" y="414" class="tick-label" text-anchor="middle">-3</text>
<line x1="184.09" y1="28" x2="184.09" y2="396.00" class="grid"/>
<text x="184.09" y="414" class="tick-label" text-anchor="middle">-2</text>
<line x1="251.51" y1="28" x2="251.51" y2="396.00" class="grid"/>
<text x="251.51" y="414" class="tick-label" text-anchor="middle">-1</text>
<line x1="318.92" y1="28" x2="318.92" y2="396.00" class="grid"/>
<text x="318.92" y="414" class="tick-label" text-anchor="middle">0</text>
<line x1="386.34" y1="28" x2="386.34" y2="396.00" class="grid"/>
<text x="386.34" y="414" class="tick-label" text-anchor="middle">1</text>
<line x1="453.75" y1="28" x2="453.75" y2="396.00" class="grid"/>
<text x="453.75" y="414" class="tick-label" text-anchor="middle">2</text>
<line x1="521.17" y1="28" x2="521.17" y2="396.00" class="grid"/>
<text x="521.17" y="414" class="tick-label" text-anchor="middle">3</text>
<line x1="588.58" y1="28" x2="588.58" y2="396.00" class="grid"/>
<text x="588.58" y="414" class="tick-label" text-anchor="middle">4</text>
<line x1="656.00" y1="28" x2="656.00" y2="396.00" class="grid"/>
<text x="656.00" y="414" class="tick-label" text-anchor="middle">5</text>
<line x1="56" y1="396.00" x2="656.00" y2="396.00" class="grid"/>
<text x="46" y="400.00" class="tick-label" text-anchor="end">-8</text>
<line x1="56" y1="350.00" x2="656.00" y2="350.00" class="grid"/>
<text x="46" y="354.00" class="tick-label" text-anchor="end">-6</text>
<line x1="56" y1="304.00" x2="656.00" y2="304.00" class="grid"/>
<text x="46" y="308.00" class="tick-label" text-anchor="end">-4</text>
<line x1="56" y1="258.00" x2="656.00" y2="258.00" class="grid"/>
<text x="46" y="262.00" class="tick-label" text-anchor="end">-2</text>
<line x1="56" y1="212.00" x2="656.00" y2="212.00" class="grid"/>
<text x="46" y="216.00" class="tick-label" text-anchor="end">0</text>
<line x1="56" y1="166.00" x2="656.00" y2="166.00" class="grid"/>
<text x="46" y="170.00" class="tick-label" text-anchor="end">2</text>
<line x1="56" y1="120.00" x2="656.00" y2="120.00" class="grid"/>
<text x="46" y="124.00" class="tick-label" text-anchor="end">4</text>
<line x1="56" y1="74.00" x2="656.00" y2="74.00" class="grid"/>
<text x="46" y="78.00" class="tick-label" text-anchor="end">6</text>
<line x1="56" y1="28.00" x2="656.00" y2="28.00" class="grid"/>
<text x="46" y="32.00" class="tick-label" text-anchor="end">8</text>
<line x1="318.92" y1="28" x2="318.92" y2="396.00" class="asymptote"/>
<line x1="251.51" y1="28" x2="251.51" y2="396.00" class="asymptote"/>
<line x1="184.09" y1="28" x2="184.09" y2="396.00" class="asymptote"/>
<line x1="116.67" y1="28" x2="116.67" y2="396.00" class="asymptote"/>
<line x1="56" y1="212.00" x2="656.00" y2="212.00" class="baseline"/>
<line x1="318.92" y1="28" x2="318.92" y2="396.00" class="baseline"/>
<text x="356.00" y="434" class="axis-label" text-anchor="middle">x</text>
<text x="14" y="212.00" class="axis-label" text-anchor="middle" transform="rotate(-90 14 212.00)">Γ(x)</text>
<clipPath id="clip-4312689008"><rect x="56" y="28" width="600.00" height="368.00"/></clipPath>
<g clip-path="url(#clip-4312689008)">
<path d="M57.35,202.22 L57.64,202.48 L57.93,202.72 L58.22,202.95 L58.51,203.16 L58.81,203.36 L59.10,203.55 L59.39,203.72 L59.68,203.88 L59.97,204.03 L60.26,204.18 L60.55,204.31 L60.84,204.44 L61.14,204.56 L61.43,204.67 L61.72,204.78 L62.01,204.88 L62.30,204.97 L62.59,205.06 L62.88,205.15 L63.18,205.23 L63.47,205.31 L63.76,205.38 L64.05,205.45 L64.34,205.51 L64.63,205.57 L64.92,205.63 L65.21,205.69 L65.51,205.74 L65.80,205.79 L66.09,205.84 L66.38,205.88 L66.67,205.92 L66.96,205.96 L67.25,206.00 L67.55,206.03 L67.84,206.06 L68.13,206.09 L68.42,206.12 L68.71,206.15 L69.00,206.17 L69.29,206.20 L69.58,206.22 L69.88,206.24 L70.17,206.26 L70.46,206.27 L70.75,206.29 L71.04,206.30 L71.33,206.31 L71.62,206.33 L71.92,206.33 L72.21,206.34 L72.50,206.35 L72.79,206.35 L73.08,206.36 L73.37,206.36 L73.66,206.36 L73.95,206.36 L74.25,206.36 L74.54,206.36 L74.83,206.36 L75.12,206.35 L75.41,206.34 L75.70,206.34 L75.99,206.33 L76.29,206.32 L76.58,206.31 L76.87,206.30 L77.16,206.29 L77.45,206.27 L77.74,206.26 L78.03,206.24 L78.33,206.22 L78.62,206.20 L78.91,206.19 L79.20,206.16 L79.49,206.14 L79.78,206.12 L80.07,206.10 L80.36,206.07 L80.66,206.04 L80.95,206.02 L81.24,205.99 L81.53,205.96 L81.82,205.92 L82.11,205.89 L82.40,205.86 L82.70,205.82 L82.99,205.79 L83.28,205.75 L83.57,205.71 L83.86,205.67 L84.15,205.62 L84.44,205.58 L84.73,205.54 L85.03,205.49 L85.32,205.44 L85.61,205.39 L85.90,205.34 L86.19,205.29 L86.48,205.23 L86.77,205.18 L87.07,205.12 L87.36,205.06 L87.65,205.00 L87.94,204.93 L88.23,204.87 L88.52,204.80 L88.81,204.73 L89.10,204.66 L89.40,204.59 L89.69,204.51 L89.98,204.43 L90.27,204.35 L90.56,204.27 L90.85,204.18 L91.14,204.09 L91.44,204.00 L91.73,203.91 L92.02,203.81 L92.31,203.71 L92.60,203.61 L92.89,203.51 L93.18,203.40 L93.48,203.29 L93.77,203.17 L94.06,203.05 L94.35,202.93 L94.64,202.80 L94.93,202.67 L95.22,202.53 L95.51,202.39 L95.81,202.25 L96.10,202.10 L96.39,201.95 L96.68,201.79 L96.97,201.62 L97.26,201.45 L97.55,201.28 L97.85,201.09 L98.14,200.90 L98.43,200.71 L98.72,200.51 L99.01,200.29 L99.30,200.08 L99.59,199.85 L99.88,199.61 L100.18,199.37 L100.47,199.11 L100.76,198.85 L101.05,198.57 L101.34,198.29 L101.63,197.99 L101.92,197.68 L102.22,197.35 L102.51,197.01 L102.80,196.66 L103.09,196.29 L103.38,195.90 L103.67,195.49 L103.96,195.06 L104.25,194.61 L104.55,194.14 L104.84,193.65 L105.13,193.13 L105.42,192.57 L105.71,191.99 L106.00,191.38 L106.29,190.73 L106.59,190.04 L106.88,189.31 L107.17,188.53 L107.46,187.70 L107.75,186.82 L108.04,185.87 L108.33,184.85 L108.62,183.76 L108.92,182.59 L109.21,181.32 L109.50,179.95 L109.79,178.45 L110.08,176.83 L110.37,175.05 L110.66,173.09 L110.96,170.93 L111.25,168.54 L111.54,165.87 L111.83,162.88 L112.12,159.50 L112.41,155.65 L112.70,151.24 L113.00,146.12 L113.29,140.11 L113.58,132.97 L113.87,124.33 L114.16,113.69 L114.45,100.25 L114.74,82.74 L115.03,59.00 L115.33,24.98" fill="none" stroke="#2a78d6" stroke-width="2.25" stroke-linejoin="round" stroke-linecap="round"/>
</g>
<g clip-path="url(#clip-4312689008)">
<path d="M118.02,408.66 L118.35,371.46 L118.67,346.38 L119.00,328.33 L119.32,314.72 L119.65,304.10 L119.97,295.59 L120.30,288.61 L120.62,282.78 L120.95,277.86 L121.27,273.63 L121.60,269.97 L121.93,266.77 L122.25,263.95 L122.58,261.45 L122.90,259.21 L123.23,257.20 L123.55,255.39 L123.88,253.75 L124.20,252.25 L124.53,250.88 L124.85,249.63 L125.18,248.48 L125.50,247.41 L125.83,246.43 L126.15,245.52 L126.48,244.67 L126.80,243.88 L127.13,243.15 L127.45,242.46 L127.78,241.82 L128.10,241.22 L128.43,240.66 L128.75,240.13 L129.08,239.63 L129.41,239.17 L129.73,238.73 L130.06,238.31 L130.38,237.92 L130.71,237.55 L131.03,237.21 L131.36,236.88 L131.68,236.57 L132.01,236.27 L132.33,236.00 L132.66,235.73 L132.98,235.49 L133.31,235.25 L133.63,235.03 L133.96,234.83 L134.28,234.63 L134.61,234.44 L134.93,234.27 L135.26,234.10 L135.58,233.95 L135.91,233.80 L136.23,233.67 L136.56,233.54 L136.89,233.42 L137.21,233.31 L137.54,233.20 L137.86,233.11 L138.19,233.02 L138.51,232.94 L138.84,232.86 L139.16,232.79 L139.49,232.73 L139.81,232.67 L140.14,232.62 L140.46,232.58 L140.79,232.54 L141.11,232.51 L141.44,232.48 L141.76,232.46 L142.09,232.44 L142.41,232.43 L142.74,232.43 L143.06,232.43 L143.39,232.43 L143.71,232.44 L144.04,232.46 L144.37,232.48 L144.69,232.50 L145.02,232.53 L145.34,232.57 L145.67,232.61 L145.99,232.65 L146.32,232.70 L146.64,232.76 L146.97,232.81 L147.29,232.88 L147.62,232.95 L147.94,233.02 L148.27,233.10 L148.59,233.19 L148.92,233.28 L149.24,233.37 L149.57,233.47 L149.89,233.57 L150.22,233.68 L150.54,233.80 L150.87,233.92 L151.20,234.05 L151.52,234.18 L151.85,234.32 L152.17,234.46 L152.50,234.61 L152.82,234.77 L153.15,234.93 L153.47,235.10 L153.80,235.28 L154.12,235.46 L154.45,235.65 L154.77,235.84 L155.10,236.05 L155.42,236.26 L155.75,236.47 L156.07,236.70 L156.40,236.93 L156.72,237.18 L157.05,237.43 L157.37,237.69 L157.70,237.95 L158.02,238.23 L158.35,238.52 L158.68,238.82 L159.00,239.12 L159.33,239.44 L159.65,239.77 L159.98,240.12 L160.30,240.47 L160.63,240.83 L160.95,241.21 L161.28,241.61 L161.60,242.01 L161.93,242.43 L162.25,242.87 L162.58,243.32 L162.90,243.79 L163.23,244.28 L163.55,244.78 L163.88,245.31 L164.20,245.85 L164.53,246.41 L164.85,247.00 L165.18,247.61 L165.50,248.24 L165.83,248.90 L166.16,249.59 L166.48,250.31 L166.81,251.05 L167.13,251.83 L167.46,252.64 L167.78,253.48 L168.11,254.37 L168.43,255.29 L168.76,256.26 L169.08,257.27 L169.41,258.33 L169.73,259.44 L170.06,260.61 L170.38,261.83 L170.71,263.12 L171.03,264.48 L171.36,265.91 L171.68,267.43 L172.01,269.02 L172.33,270.71 L172.66,272.50 L172.98,274.40 L173.31,276.42 L173.64,278.57 L173.96,280.87 L174.29,283.32 L174.61,285.94 L174.94,288.76 L175.26,291.79 L175.59,295.06 L175.91,298.60 L176.24,302.44 L176.56,306.61 L176.89,311.17 L177.21,316.17 L177.54,321.68 L177.86,327.77 L178.19,334.53 L178.51,342.10 L178.84,350.62 L179.16,360.28 L179.49,371.31 L179.81,384.03 L180.14,398.87 L180.47,416.38 L180.79,437.36 L181.12,462.96 L181.44,494.86 L181.77,535.71 L182.09,580.00 L182.42,580.00 L182.74,580.00" fill="none" stroke="#2a78d6" stroke-width="2.25" stroke-linejoin="round" stroke-linecap="round"/>
</g>
<g clip-path="url(#clip-4312689008)">
<path d="M185.44,-64.00 L185.76,-64.00 L186.09,-64.00 L186.41,-64.00 L186.74,-64.00 L187.06,-60.25 L187.39,-34.67 L187.71,-13.70 L188.04,3.79 L188.37,18.61 L188.69,31.31 L189.02,42.32 L189.34,51.95 L189.67,60.44 L189.99,67.99 L190.32,74.73 L190.64,80.78 L190.97,86.25 L191.29,91.22 L191.62,95.74 L191.94,99.88 L192.27,103.68 L192.59,107.18 L192.92,110.40 L193.24,113.39 L193.57,116.16 L193.89,118.74 L194.22,121.14 L194.54,123.38 L194.87,125.48 L195.19,127.45 L195.52,129.29 L195.85,131.02 L196.17,132.65 L196.50,134.18 L196.82,135.63 L197.15,137.00 L197.47,138.29 L197.80,139.51 L198.12,140.66 L198.45,141.75 L198.77,142.79 L199.10,143.77 L199.42,144.70 L199.75,145.58 L200.07,146.42 L200.40,147.22 L200.72,147.98 L201.05,148.69 L201.37,149.38 L201.70,150.02 L202.02,150.64 L202.35,151.23 L202.67,151.78 L203.00,152.31 L203.33,152.81 L203.65,153.29 L203.98,153.74 L204.30,154.16 L204.63,154.57 L204.95,154.95 L205.28,155.31 L205.60,155.65 L205.93,155.97 L206.25,156.28 L206.58,156.56 L206.90,156.83 L207.23,157.08 L207.55,157.31 L207.88,157.52 L208.20,157.72 L208.53,157.91 L208.85,158.08 L209.18,158.23 L209.50,158.37 L209.83,158.50 L210.16,158.61 L210.48,158.71 L210.81,158.80 L211.13,158.87 L211.46,158.93 L211.78,158.98 L212.11,159.01 L212.43,159.03 L212.76,159.04 L213.08,159.04 L213.41,159.03 L213.73,159.00 L214.06,158.96 L214.38,158.91 L214.71,158.85 L215.03,158.77 L215.36,158.68 L215.68,158.58 L216.01,158.47 L216.33,158.35 L216.66,158.21 L216.98,158.07 L217.31,157.91 L217.64,157.74 L217.96,157.55 L218.29,157.35 L218.61,157.14 L218.94,156.92 L219.26,156.69 L219.59,156.44 L219.91,156.18 L220.24,155.90 L220.56,155.61 L220.89,155.31 L221.21,154.99 L221.54,154.66 L221.86,154.31 L222.19,153.95 L222.51,153.57 L222.84,153.17 L223.16,152.76 L223.49,152.34 L223.81,151.89 L224.14,151.43 L224.46,150.95 L224.79,150.45 L225.12,149.93 L225.44,149.39 L225.77,148.84 L226.09,148.26 L226.42,147.66 L226.74,147.03 L227.07,146.38 L227.39,145.71 L227.72,145.02 L228.04,144.30 L228.37,143.55 L228.69,142.77 L229.02,141.96 L229.34,141.13 L229.67,140.26 L229.99,139.36 L230.32,138.43 L230.64,137.46 L230.97,136.45 L231.29,135.40 L231.62,134.32 L231.94,133.19 L232.27,132.01 L232.60,130.79 L232.92,129.52 L233.25,128.20 L233.57,126.82 L233.90,125.38 L234.22,123.89 L234.55,122.33 L234.87,120.70 L235.20,119.00 L235.52,117.22 L235.85,115.36 L236.17,113.42 L236.50,111.38 L236.82,109.25 L237.15,107.01 L237.47,104.67 L237.80,102.20 L238.12,99.60 L238.45,96.87 L238.77,93.99 L239.10,90.95 L239.42,87.74 L239.75,84.34 L240.08,80.74 L240.40,76.91 L240.73,72.85 L241.05,68.53 L241.38,63.92 L241.70,58.99 L242.03,53.71 L242.35,48.05 L242.68,41.96 L243.00,35.40 L243.33,28.29 L243.65,20.59 L243.98,12.21 L244.30,3.06 L244.63,-6.97 L244.95,-18.01 L245.28,-30.22 L245.60,-43.80 L245.93,-58.97 L246.25,-64.00 L246.58,-64.00 L246.91,-64.00 L247.23,-64.00 L247.56,-64.00 L247.88,-64.00 L248.21,-64.00 L248.53,-64.00 L248.86,-64.00 L249.18,-64.00 L249.51,-64.00 L249.83,-64.00 L250.16,-64.00" fill="none" stroke="#2a78d6" stroke-width="2.25" stroke-linejoin="round" stroke-linecap="round"/>
</g>
<g clip-path="url(#clip-4312689008)">
<path d="M252.85,580.00 L253.18,580.00 L253.50,580.00 L253.83,580.00 L254.15,580.00 L254.48,580.00 L254.81,580.00 L255.13,580.00 L255.46,580.00 L255.78,580.00 L256.11,561.04 L256.43,538.96 L256.76,519.63 L257.08,502.58 L257.41,487.42 L257.73,473.87 L258.06,461.68 L258.38,450.66 L258.71,440.66 L259.03,431.53 L259.36,423.18 L259.68,415.50 L260.01,408.43 L260.33,401.89 L260.66,395.83 L260.98,390.20 L261.31,384.96 L261.63,380.07 L261.96,375.49 L262.29,371.20 L262.61,367.18 L262.94,363.40 L263.26,359.84 L263.59,356.48 L263.91,353.31 L264.24,350.32 L264.56,347.48 L264.89,344.80 L265.21,342.25 L265.54,339.83 L265.86,337.54 L266.19,335.35 L266.51,333.27 L266.84,331.29 L267.16,329.41 L267.49,327.61 L267.81,325.89 L268.14,324.25 L268.46,322.69 L268.79,321.19 L269.12,319.76 L269.44,318.40 L269.77,317.09 L270.09,315.84 L270.42,314.64 L270.74,313.49 L271.07,312.39 L271.39,311.34 L271.72,310.34 L272.04,309.37 L272.37,308.45 L272.69,307.56 L273.02,306.72 L273.34,305.91 L273.67,305.13 L273.99,304.39 L274.32,303.68 L274.64,303.00 L274.97,302.35 L275.29,301.73 L275.62,301.14 L275.94,300.57 L276.27,300.03 L276.60,299.52 L276.92,299.03 L277.25,298.57 L277.57,298.13 L277.90,297.71 L278.22,297.32 L278.55,296.95 L278.87,296.59 L279.20,296.26 L279.52,295.95 L279.85,295.66 L280.17,295.39 L280.50,295.14 L280.82,294.91 L281.15,294.70 L281.47,294.50 L281.80,294.33 L282.12,294.17 L282.45,294.03 L282.77,293.90 L283.10,293.80 L283.42,293.71 L283.75,293.64 L284.08,293.59 L284.40,293.55 L284.73,293.53 L285.05,293.53 L285.38,293.54 L285.70,293.57 L286.03,293.62 L286.35,293.69 L286.68,293.77 L287.00,293.87 L287.33,293.99 L287.65,294.12 L287.98,294.27 L288.30,294.44 L288.63,294.63 L288.95,294.83 L289.28,295.06 L289.60,295.30 L289.93,295.56 L290.25,295.84 L290.58,296.14 L290.90,296.46 L291.23,296.80 L291.56,297.16 L291.88,297.54 L292.21,297.94 L292.53,298.36 L292.86,298.81 L293.18,299.28 L293.51,299.77 L293.83,300.29 L294.16,300.83 L294.48,301.40 L294.81,302.00 L295.13,302.62 L295.46,303.27 L295.78,303.95 L296.11,304.66 L296.43,305.40 L296.76,306.17 L297.08,306.98 L297.41,307.82 L297.73,308.70 L298.06,309.61 L298.38,310.56 L298.71,311.56 L299.04,312.60 L299.36,313.68 L299.69,314.81 L300.01,315.99 L300.34,317.22 L300.66,318.50 L300.99,319.84 L301.31,321.24 L301.64,322.70 L301.96,324.23 L302.29,325.83 L302.61,327.50 L302.94,329.25 L303.26,331.08 L303.59,333.00 L303.91,335.01 L304.24,337.13 L304.56,339.34 L304.89,341.67 L305.21,344.13 L305.54,346.71 L305.87,349.43 L306.19,352.30 L306.52,355.33 L306.84,358.53 L307.17,361.92 L307.49,365.52 L307.82,369.34 L308.14,373.40 L308.47,377.72 L308.79,382.33 L309.12,387.26 L309.44,392.54 L309.77,398.21 L310.09,404.30 L310.42,410.88 L310.74,417.99 L311.07,425.70 L311.39,434.10 L311.72,443.26 L312.04,453.31 L312.37,464.37 L312.69,476.60 L313.02,490.19 L313.35,505.38 L313.67,522.48 L314.00,541.85 L314.32,563.97 L314.65,580.00 L314.97,580.00 L315.30,580.00 L315.62,580.00 L315.95,580.00 L316.27,580.00 L316.60,580.00 L316.92,580.00 L317.25,580.00 L317.57,580.00" fill="none" stroke="#2a78d6" stroke-width="2.25" stroke-linejoin="round" stroke-linecap="round"/>
</g>
<g clip-path="url(#clip-4312689008)">
<path d="M320.27,-64.00 L321.95,-64.00 L323.63,-64.00 L325.31,-19.39 L326.99,30.67 L328.67,63.33 L330.35,86.27 L332.03,103.23 L333.71,116.26 L335.39,126.56 L337.07,134.89 L338.75,141.76 L340.43,147.51 L342.11,152.38 L343.79,156.55 L345.47,160.17 L347.15,163.32 L348.83,166.09 L350.52,168.54 L352.20,170.71 L353.88,172.65 L355.56,174.40 L357.24,175.97 L358.92,177.39 L360.60,178.68 L362.28,179.85 L363.96,180.91 L365.64,181.89 L367.32,182.78 L369.00,183.59 L370.68,184.34 L372.36,185.03 L374.04,185.66 L375.72,186.25 L377.40,186.78 L379.08,187.28 L380.76,187.73 L382.44,188.15 L384.12,188.54 L385.80,188.89 L387.48,189.22 L389.16,189.52 L390.84,189.79 L392.52,190.04 L394.20,190.27 L395.88,190.48 L397.56,190.66 L399.24,190.83 L400.92,190.98 L402.60,191.11 L404.29,191.23 L405.97,191.33 L407.65,191.41 L409.33,191.48 L411.01,191.54 L412.69,191.58 L414.37,191.61 L416.05,191.63 L417.73,191.63 L419.41,191.62 L421.09,191.60 L422.77,191.57 L424.45,191.53 L426.13,191.47 L427.81,191.41 L429.49,191.33 L431.17,191.24 L432.85,191.14 L434.53,191.03 L436.21,190.91 L437.89,190.78 L439.57,190.64 L441.25,190.49 L442.93,190.32 L444.61,190.15 L446.29,189.96 L447.97,189.77 L449.65,189.56 L451.33,189.34 L453.01,189.11 L454.69,188.86 L456.37,188.61 L458.06,188.34 L459.74,188.06 L461.42,187.77 L463.10,187.46 L464.78,187.15 L466.46,186.82 L468.14,186.47 L469.82,186.11 L471.50,185.74 L473.18,185.35 L474.86,184.95 L476.54,184.54 L478.22,184.10 L479.90,183.65 L481.58,183.19 L483.26,182.71 L484.94,182.21 L486.62,181.69 L488.30,181.15 L489.98,180.60 L491.66,180.03 L493.34,179.43 L495.02,178.82 L496.70,178.18 L498.38,177.52 L500.06,176.84 L501.74,176.13 L503.42,175.40 L505.10,174.65 L506.78,173.87 L508.46,173.06 L510.14,172.23 L511.83,171.37 L513.51,170.47 L515.19,169.55 L516.87,168.60 L518.55,167.61 L520.23,166.59 L521.91,165.53 L523.59,164.44 L525.27,163.31 L526.95,162.14 L528.63,160.93 L530.31,159.68 L531.99,158.39 L533.67,157.05 L535.35,155.67 L537.03,154.24 L538.71,152.75 L540.39,151.22 L542.07,149.63 L543.75,147.99 L545.43,146.29 L547.11,144.53 L548.79,142.71 L550.47,140.83 L552.15,138.88 L553.83,136.85 L555.51,134.76 L557.19,132.59 L558.87,130.35 L560.55,128.02 L562.23,125.61 L563.91,123.12 L565.60,120.53 L567.28,117.85 L568.96,115.08 L570.64,112.20 L572.32,109.22 L574.00,106.13 L575.68,102.92 L577.36,99.60 L579.04,96.15 L580.72,92.58 L582.40,88.88 L584.08,85.03 L585.76,81.04 L587.44,76.91 L589.12,72.62 L590.80,68.16 L592.48,63.54 L594.16,58.74 L595.84,53.76 L597.52,48.60 L599.20,43.23 L600.88,37.66 L602.56,31.87 L604.24,25.86 L605.92,19.62 L607.60,13.14 L609.28,6.40 L610.96,-0.60 L612.64,-7.87 L614.32,-15.43 L616.00,-23.28 L617.68,-31.45 L619.37,-39.93 L621.05,-48.76 L622.73,-57.93 L624.41,-64.00 L626.09,-64.00 L627.77,-64.00 L629.45,-64.00 L631.13,-64.00 L632.81,-64.00 L634.49,-64.00 L636.17,-64.00 L637.85,-64.00 L639.53,-64.00 L641.21,-64.00 L642.89,-64.00 L644.57,-64.00 L646.25,-64.00 L647.93,-64.00 L649.61,-64.00 L651.29,-64.00 L652.97,-64.00 L654.65,-64.00" fill="none" stroke="#2a78d6" stroke-width="2.25" stroke-linejoin="round" stroke-linecap="round"/>
</g>
<text x="554.88" y="44.10" class="curve-label" text-anchor="start" fill="#2a78d6">Γ(x)</text>
</svg>