<?xml version="1.0" encoding="UTF-8"?>
<svg viewBox="0 0 680 440" xmlns="http://www.w3.org/2000/svg" font-family="system-ui, -apple-system, 'Segoe UI', sans-serif" class="nr-chart">

<style>
  .nr-chart { --grid: #e1e0d9; --baseline: #c3c2b7; --text-primary: #0b0b0b; --text-secondary: #52514e; --muted: #898781; }
  @media (prefers-color-scheme: dark) {
    :root:not([data-theme="light"]) .nr-chart { --grid: #2c2c2a; --baseline: #383835; --text-primary: #ffffff; --text-secondary: #c3c2b7; --muted: #898781; }
  }
  :root[data-theme="dark"] .nr-chart { --grid: #2c2c2a; --baseline: #383835; --text-primary: #ffffff; --text-secondary: #c3c2b7; --muted: #898781; }
  .nr-chart .grid { stroke: var(--grid); stroke-width: 1; }
  .nr-chart .baseline { stroke: var(--baseline); stroke-width: 1.25; }
  .nr-chart .tick-label { fill: var(--muted); font-size: 12px; }
  .nr-chart .axis-label { fill: var(--text-secondary); font-size: 13px; }
  .nr-chart .title { fill: var(--text-primary); font-size: 15px; font-weight: 600; }
  .nr-chart .curve-label { font-size: 12.5px; font-weight: 600; }
  .nr-chart .asymptote { stroke: var(--muted); stroke-width: 1; stroke-dasharray: 3 3; }
</style>

<text x="60" y="18" class="title">Regularized lower incomplete gamma function P(a, x)</text>
<line x1="60.00" y1="28" x2="60.00" y2="396.00" class="grid"/>
<text x="60.00" y="414" class="tick-label" text-anchor="middle">0</text>
<line x1="139.47" y1="28" x2="139.47" y2="396.00" class="grid"/>
<text x="139.47" y="414" class="tick-label" text-anchor="middle">2</text>
<line x1="218.93" y1="28" x2="218.93" y2="396.00" class="grid"/>
<text x="218.93" y="414" class="tick-label" text-anchor="middle">4</text>
<line x1="298.40" y1="28" x2="298.40" y2="396.00" class="grid"/>
<text x="298.40" y="414" class="tick-label" text-anchor="middle">6</text>
<line x1="377.87" y1="28" x2="377.87" y2="396.00" class="grid"/>
<text x="377.87" y="414" class="tick-label" text-anchor="middle">8</text>
<line x1="457.33" y1="28" x2="457.33" y2="396.00" class="grid"/>
<text x="457.33" y="414" class="tick-label" text-anchor="middle">10</text>
<line x1="536.80" y1="28" x2="536.80" y2="396.00" class="grid"/>
<text x="536.80" y="414" class="tick-label" text-anchor="middle">12</text>
<line x1="616.27" y1="28" x2="616.27" y2="396.00" class="grid"/>
<text x="616.27" y="414" class="tick-label" text-anchor="middle">14</text>
<line x1="60" y1="396.00" x2="656.00" y2="396.00" class="grid"/>
<text x="50" y="400.00" class="tick-label" text-anchor="end">0</text>
<line x1="60" y1="322.40" x2="656.00" y2="322.40" class="grid"/>
<text x="50" y="326.40" class="tick-label" text-anchor="end">0.2</text>
<line x1="60" y1="248.80" x2="656.00" y2="248.80" class="grid"/>
<text x="50" y="252.80" class="tick-label" text-anchor="end">0.4</text>
<line x1="60" y1="175.20" x2="656.00" y2="175.20" class="grid"/>
<text x="50" y="179.20" class="tick-label" text-anchor="end">0.6</text>
<line x1="60" y1="101.60" x2="656.00" y2="101.60" class="grid"/>
<text x="50" y="105.60" class="tick-label" text-anchor="end">0.8</text>
<line x1="60" y1="28.00" x2="656.00" y2="28.00" class="grid"/>
<text x="50" y="32.00" class="tick-label" text-anchor="end">1</text>
<line x1="60" y1="396.00" x2="656.00" y2="396.00" class="baseline"/>
<line x1="60.00" y1="28" x2="60.00" y2="396.00" class="baseline"/>
<text x="358.00" y="434" class="axis-label" text-anchor="middle">x</text>
<text x="14" y="212.00" class="axis-label" text-anchor="middle" transform="rotate(-90 14 212.00)">P(a, x)</text>
<clipPath id="clip-4312688912"><rect x="60" y="28" width="596.00" height="368.00"/></clipPath>
<g clip-path="url(#clip-4312688912)">
<path d="M60.04,382.87 L62.03,303.65 L64.03,268.15 L66.02,242.18 L68.01,221.34 L70.01,203.87 L72.00,188.84 L73.99,175.69 L75.99,164.06 L77.98,153.66 L79.97,144.30 L81.96,135.84 L83.96,128.15 L85.95,121.13 L87.94,114.71 L89.94,108.82 L91.93,103.40 L93.92,98.40 L95.92,93.78 L97.91,89.51 L99.90,85.56 L101.90,81.89 L103.89,78.49 L105.88,75.32 L107.88,72.37 L109.87,69.63 L111.86,67.07 L113.86,64.68 L115.85,62.45 L117.84,60.37 L119.84,58.42 L121.83,56.60 L123.82,54.89 L125.81,53.30 L127.81,51.80 L129.80,50.40 L131.79,49.09 L133.79,47.86 L135.78,46.70 L137.77,45.61 L139.77,44.59 L141.76,43.64 L143.75,42.74 L145.75,41.89 L147.74,41.10 L149.73,40.35 L151.73,39.65 L153.72,38.99 L155.71,38.37 L157.71,37.78 L159.70,37.23 L161.69,36.71 L163.68,36.22 L165.68,35.76 L167.67,35.33 L169.66,34.92 L171.66,34.53 L173.65,34.17 L175.64,33.83 L177.64,33.50 L179.63,33.20 L181.62,32.91 L183.62,32.64 L185.61,32.39 L187.60,32.15 L189.60,31.92 L191.59,31.70 L193.58,31.50 L195.58,31.31 L197.57,31.13 L199.56,30.96 L201.56,30.80 L203.55,30.64 L205.54,30.50 L207.53,30.37 L209.53,30.24 L211.52,30.12 L213.51,30.00 L215.51,29.89 L217.50,29.79 L219.49,29.69 L221.49,29.60 L223.48,29.52 L225.47,29.44 L227.47,29.36 L229.46,29.29 L231.45,29.22 L233.45,29.15 L235.44,29.09 L237.43,29.03 L239.43,28.98 L241.42,28.92 L243.41,28.88 L245.41,28.83 L247.40,28.78 L249.39,28.74 L251.38,28.70 L253.38,28.67 L255.37,28.63 L257.36,28.60 L259.36,28.57 L261.35,28.54 L263.34,28.51 L265.34,28.48 L267.33,28.45 L269.32,28.43 L271.32,28.41 L273.31,28.39 L275.30,28.37 L277.30,28.35 L279.29,28.33 L281.28,28.31 L283.28,28.29 L285.27,28.28 L287.26,28.26 L289.26,28.25 L291.25,28.24 L293.24,28.23 L295.23,28.21 L297.23,28.20 L299.22,28.19 L301.21,28.18 L303.21,28.17 L305.20,28.16 L307.19,28.15 L309.19,28.15 L311.18,28.14 L313.17,28.13 L315.17,28.12 L317.16,28.12 L319.15,28.11 L321.15,28.11 L323.14,28.10 L325.13,28.10 L327.13,28.09 L329.12,28.09 L331.11,28.08 L333.11,28.08 L335.10,28.07 L337.09,28.07 L339.08,28.07 L341.08,28.06 L343.07,28.06 L345.06,28.06 L347.06,28.05 L349.05,28.05 L351.04,28.05 L353.04,28.05 L355.03,28.04 L357.02,28.04 L359.02,28.04 L361.01,28.04 L363.00,28.03 L365.00,28.03 L366.99,28.03 L368.98,28.03 L370.98,28.03 L372.97,28.03 L374.96,28.03 L376.96,28.02 L378.95,28.02 L380.94,28.02 L382.93,28.02 L384.93,28.02 L386.92,28.02 L388.91,28.02 L390.91,28.02 L392.90,28.02 L394.89,28.01 L396.89,28.01 L398.88,28.01 L400.87,28.01 L402.87,28.01 L404.86,28.01 L406.85,28.01 L408.85,28.01 L410.84,28.01 L412.83,28.01 L414.83,28.01 L416.82,28.01 L418.81,28.01 L420.80,28.01 L422.80,28.01 L424.79,28.01 L426.78,28.01 L428.78,28.01 L430.77,28.01 L432.76,28.01 L434.76,28.01 L436.75,28.00 L438.74,28.00 L440.74,28.00 L442.73,28.00 L444.72,28.00 L446.72,28.00 L448.71,28.00 L450.70,28.00 L452.70,28.00 L454.69,28.00 L456.68,28.00 L458.68,28.00 L460.67,28.00 L462.66,28.00 L464.65,28.00 L466.65,28.00 L468.64,28.00 L470.63,28.00 L472.63,28.00 L474.62,28.00 L476.61,28.00 L478.61,28.00 L480.60,28.00 L482.59,28.00 L484.59,28.00 L486.58,28.00 L488.57,28.00 L490.57,28.00 L492.56,28.00 L494.55,28.00 L496.55,28.00 L498.54,28.00 L500.53,28.00 L502.53,28.00 L504.52,28.00 L506.51,28.00 L508.50,28.00 L510.50,28.00 L512.49,28.00 L514.48,28.00 L516.48,28.00 L518.47,28.00 L520.46,28.00 L522.46,28.00 L524.45,28.00 L526.44,28.00 L528.44,28.00 L530.43,28.00 L532.42,28.00 L534.42,28.00 L536.41,28.00 L538.40,28.00 L540.40,28.00 L542.39,28.00 L544.38,28.00 L546.38,28.00 L548.37,28.00 L550.36,28.00 L552.35,28.00 L554.35,28.00 L556.34,28.00 L558.33,28.00 L560.33,28.00 L562.32,28.00 L564.31,28.00 L566.31,28.00 L568.30,28.00 L570.29,28.00 L572.29,28.00 L574.28,28.00 L576.27,28.00 L578.27,28.00 L580.26,28.00 L582.25,28.00 L584.25,28.00 L586.24,28.00 L588.23,28.00 L590.23,28.00 L592.22,28.00 L594.21,28.00 L596.20,28.00 L598.20,28.00 L600.19,28.00 L602.18,28.00 L604.18,28.00 L606.17,28.00 L608.16,28.00 L610.16,28.00 L612.15,28.00 L614.14,28.00 L616.14,28.00 L618.13,28.00 L620.12,28.00 L622.12,28.00 L624.11,28.00 L626.10,28.00 L628.10,28.00 L630.09,28.00 L632.08,28.00 L634.08,28.00 L636.07,28.00 L638.06,28.00 L640.05,28.00 L642.05,28.00 L644.04,28.00 L646.03,28.00 L648.03,28.00 L650.02,28.00 L652.01,28.00 L654.01,28.00 L656.00,28.00" fill="none" stroke="#2a78d6" stroke-width="2.25" stroke-linejoin="round" stroke-linecap="round"/>
</g>
<text x="61.99" y="53.76" class="curve-label" text-anchor="start" fill="#2a78d6">a = 0.5</text>
<g clip-path="url(#clip-4312688912)">
<path d="M60.04,395.63 L62.03,377.65 L64.03,360.54 L66.02,344.27 L68.01,328.79 L70.01,314.08 L72.00,300.08 L73.99,286.77 L75.99,274.11 L77.98,262.07 L79.97,250.62 L81.96,239.72 L83.96,229.36 L85.95,219.51 L87.94,210.14 L89.94,201.23 L91.93,192.76 L93.92,184.69 L95.92,177.03 L97.91,169.74 L99.90,162.80 L101.90,156.21 L103.89,149.93 L105.88,143.97 L107.88,138.29 L109.87,132.90 L111.86,127.77 L113.86,122.88 L115.85,118.24 L117.84,113.83 L119.84,109.63 L121.83,105.63 L123.82,101.84 L125.81,98.22 L127.81,94.79 L129.80,91.52 L131.79,88.41 L133.79,85.46 L135.78,82.64 L137.77,79.97 L139.77,77.43 L141.76,75.01 L143.75,72.71 L145.75,70.52 L147.74,68.44 L149.73,66.46 L151.73,64.58 L153.72,62.79 L155.71,61.09 L157.71,59.47 L159.70,57.93 L161.69,56.47 L163.68,55.07 L165.68,53.75 L167.67,52.49 L169.66,51.29 L171.66,50.15 L173.65,49.07 L175.64,48.04 L177.64,47.06 L179.63,46.12 L181.62,45.24 L183.62,44.39 L185.61,43.59 L187.60,42.83 L189.60,42.10 L191.59,41.41 L193.58,40.76 L195.58,40.13 L197.57,39.54 L199.56,38.97 L201.56,38.44 L203.55,37.93 L205.54,37.44 L207.53,36.98 L209.53,36.54 L211.52,36.12 L213.51,35.73 L215.51,35.35 L217.50,34.99 L219.49,34.65 L221.49,34.32 L223.48,34.01 L225.47,33.72 L227.47,33.44 L229.46,33.17 L231.45,32.92 L233.45,32.68 L235.44,32.45 L237.43,32.23 L239.43,32.02 L241.42,31.83 L243.41,31.64 L245.41,31.46 L247.40,31.29 L249.39,31.13 L251.38,30.98 L253.38,30.83 L255.37,30.69 L257.36,30.56 L259.36,30.44 L261.35,30.32 L263.34,30.20 L265.34,30.10 L267.33,29.99 L269.32,29.90 L271.32,29.80 L273.31,29.72 L275.30,29.63 L277.30,29.55 L279.29,29.48 L281.28,29.40 L283.28,29.33 L285.27,29.27 L287.26,29.21 L289.26,29.15 L291.25,29.09 L293.24,29.04 L295.23,28.99 L297.23,28.94 L299.22,28.89 L301.21,28.85 L303.21,28.81 L305.20,28.77 L307.19,28.73 L309.19,28.70 L311.18,28.66 L313.17,28.63 L315.17,28.60 L317.16,28.57 L319.15,28.54 L321.15,28.51 L323.14,28.49 L325.13,28.47 L327.13,28.44 L329.12,28.42 L331.11,28.40 L333.11,28.38 L335.10,28.36 L337.09,28.34 L339.08,28.33 L341.08,28.31 L343.07,28.30 L345.06,28.28 L347.06,28.27 L349.05,28.25 L351.04,28.24 L353.04,28.23 L355.03,28.22 L357.02,28.21 L359.02,28.20 L361.01,28.19 L363.00,28.18 L365.00,28.17 L366.99,28.16 L368.98,28.15 L370.98,28.15 L372.97,28.14 L374.96,28.13 L376.96,28.13 L378.95,28.12 L380.94,28.11 L382.93,28.11 L384.93,28.10 L386.92,28.10 L388.91,28.09 L390.91,28.09 L392.90,28.08 L394.89,28.08 L396.89,28.08 L398.88,28.07 L400.87,28.07 L402.87,28.07 L404.86,28.06 L406.85,28.06 L408.85,28.06 L410.84,28.05 L412.83,28.05 L414.83,28.05 L416.82,28.05 L418.81,28.04 L420.80,28.04 L422.80,28.04 L424.79,28.04 L426.78,28.04 L428.78,28.03 L430.77,28.03 L432.76,28.03 L434.76,28.03 L436.75,28.03 L438.74,28.03 L440.74,28.03 L442.73,28.02 L444.72,28.02 L446.72,28.02 L448.71,28.02 L450.70,28.02 L452.70,28.02 L454.69,28.02 L456.68,28.02 L458.68,28.02 L460.67,28.02 L462.66,28.01 L464.65,28.01 L466.65,28.01 L468.64,28.01 L470.63,28.01 L472.63,28.01 L474.62,28.01 L476.61,28.01 L478.61,28.01 L480.60,28.01 L482.59,28.01 L484.59,28.01 L486.58,28.01 L488.57,28.01 L490.57,28.01 L492.56,28.01 L494.55,28.01 L496.55,28.01 L498.54,28.01 L500.53,28.01 L502.53,28.01 L504.52,28.01 L506.51,28.00 L508.50,28.00 L510.50,28.00 L512.49,28.00 L514.48,28.00 L516.48,28.00 L518.47,28.00 L520.46,28.00 L522.46,28.00 L524.45,28.00 L526.44,28.00 L528.44,28.00 L530.43,28.00 L532.42,28.00 L534.42,28.00 L536.41,28.00 L538.40,28.00 L540.40,28.00 L542.39,28.00 L544.38,28.00 L546.38,28.00 L548.37,28.00 L550.36,28.00 L552.35,28.00 L554.35,28.00 L556.34,28.00 L558.33,28.00 L560.33,28.00 L562.32,28.00 L564.31,28.00 L566.31,28.00 L568.30,28.00 L570.29,28.00 L572.29,28.00 L574.28,28.00 L576.27,28.00 L578.27,28.00 L580.26,28.00 L582.25,28.00 L584.25,28.00 L586.24,28.00 L588.23,28.00 L590.23,28.00 L592.22,28.00 L594.21,28.00 L596.20,28.00 L598.20,28.00 L600.19,28.00 L602.18,28.00 L604.18,28.00 L606.17,28.00 L608.16,28.00 L610.16,28.00 L612.15,28.00 L614.14,28.00 L616.14,28.00 L618.13,28.00 L620.12,28.00 L622.12,28.00 L624.11,28.00 L626.10,28.00 L628.10,28.00 L630.09,28.00 L632.08,28.00 L634.08,28.00 L636.07,28.00 L638.06,28.00 L640.05,28.00 L642.05,28.00 L644.04,28.00 L646.03,28.00 L648.03,28.00 L650.02,28.00 L652.01,28.00 L654.01,28.00 L656.00,28.00" fill="none" stroke="#1baf7a" stroke-width="2.25" stroke-linejoin="round" stroke-linecap="round"/>
</g>
<text x="129.53" y="53.76" class="curve-label" text-anchor="start" fill="#1baf7a">a = 1</text>
<g clip-path="url(#clip-4312688912)">
<path d="M60.04,396.00 L62.03,395.99 L64.03,395.94 L66.02,395.81 L68.01,395.57 L70.01,395.19 L72.00,394.65 L73.99,393.94 L75.99,393.04 L77.98,391.94 L79.97,390.63 L81.96,389.11 L83.96,387.39 L85.95,385.44 L87.94,383.29 L89.94,380.92 L91.93,378.36 L93.92,375.59 L95.92,372.63 L97.91,369.48 L99.90,366.16 L101.90,362.67 L103.89,359.01 L105.88,355.21 L107.88,351.26 L109.87,347.18 L111.86,342.97 L113.86,338.65 L115.85,334.23 L117.84,329.71 L119.84,325.11 L121.83,320.43 L123.82,315.68 L125.81,310.88 L127.81,306.02 L129.80,301.12 L131.79,296.19 L133.79,291.23 L135.78,286.25 L137.77,281.26 L139.77,276.26 L141.76,271.27 L143.75,266.28 L145.75,261.31 L147.74,256.35 L149.73,251.42 L151.73,246.51 L153.72,241.64 L155.71,236.80 L157.71,232.01 L159.70,227.26 L161.69,222.55 L163.68,217.90 L165.68,213.31 L167.67,208.77 L169.66,204.29 L171.66,199.87 L173.65,195.51 L175.64,191.22 L177.64,187.00 L179.63,182.84 L181.62,178.76 L183.62,174.74 L185.61,170.80 L187.60,166.92 L189.60,163.12 L191.59,159.40 L193.58,155.74 L195.58,152.16 L197.57,148.66 L199.56,145.23 L201.56,141.87 L203.55,138.58 L205.54,135.37 L207.53,132.22 L209.53,129.15 L211.52,126.16 L213.51,123.23 L215.51,120.37 L217.50,117.58 L219.49,114.86 L221.49,112.21 L223.48,109.63 L225.47,107.11 L227.47,104.65 L229.46,102.26 L231.45,99.93 L233.45,97.67 L235.44,95.46 L237.43,93.31 L239.43,91.23 L241.42,89.20 L243.41,87.22 L245.41,85.31 L247.40,83.44 L249.39,81.63 L251.38,79.87 L253.38,78.17 L255.37,76.51 L257.36,74.90 L259.36,73.34 L261.35,71.82 L263.34,70.35 L265.34,68.92 L267.33,67.54 L269.32,66.20 L271.32,64.90 L273.31,63.64 L275.30,62.42 L277.30,61.24 L279.29,60.09 L281.28,58.98 L283.28,57.91 L285.27,56.87 L287.26,55.86 L289.26,54.89 L291.25,53.94 L293.24,53.03 L295.23,52.15 L297.23,51.29 L299.22,50.47 L301.21,49.67 L303.21,48.90 L305.20,48.15 L307.19,47.43 L309.19,46.73 L311.18,46.06 L313.17,45.40 L315.17,44.77 L317.16,44.17 L319.15,43.58 L321.15,43.01 L323.14,42.46 L325.13,41.93 L327.13,41.42 L329.12,40.93 L331.11,40.45 L333.11,39.99 L335.10,39.55 L337.09,39.12 L339.08,38.71 L341.08,38.31 L343.07,37.93 L345.06,37.56 L347.06,37.20 L349.05,36.86 L351.04,36.52 L353.04,36.20 L355.03,35.89 L357.02,35.60 L359.02,35.31 L361.01,35.03 L363.00,34.77 L365.00,34.51 L366.99,34.26 L368.98,34.02 L370.98,33.79 L372.97,33.57 L374.96,33.36 L376.96,33.15 L378.95,32.96 L380.94,32.76 L382.93,32.58 L384.93,32.40 L386.92,32.23 L388.91,32.07 L390.91,31.91 L392.90,31.76 L394.89,31.61 L396.89,31.47 L398.88,31.34 L400.87,31.21 L402.87,31.08 L404.86,30.96 L406.85,30.85 L408.85,30.74 L410.84,30.63 L412.83,30.52 L414.83,30.43 L416.82,30.33 L418.81,30.24 L420.80,30.15 L422.80,30.06 L424.79,29.98 L426.78,29.90 L428.78,29.83 L430.77,29.76 L432.76,29.69 L434.76,29.62 L436.75,29.55 L438.74,29.49 L440.74,29.43 L442.73,29.38 L444.72,29.32 L446.72,29.27 L448.71,29.22 L450.70,29.17 L452.70,29.12 L454.69,29.08 L456.68,29.03 L458.68,28.99 L460.67,28.95 L462.66,28.91 L464.65,28.88 L466.65,28.84 L468.64,28.81 L470.63,28.77 L472.63,28.74 L474.62,28.71 L476.61,28.68 L478.61,28.66 L480.60,28.63 L482.59,28.60 L484.59,28.58 L486.58,28.56 L488.57,28.53 L490.57,28.51 L492.56,28.49 L494.55,28.47 L496.55,28.45 L498.54,28.43 L500.53,28.41 L502.53,28.40 L504.52,28.38 L506.51,28.37 L508.50,28.35 L510.50,28.34 L512.49,28.32 L514.48,28.31 L516.48,28.30 L518.47,28.28 L520.46,28.27 L522.46,28.26 L524.45,28.25 L526.44,28.24 L528.44,28.23 L530.43,28.22 L532.42,28.21 L534.42,28.20 L536.41,28.19 L538.40,28.19 L540.40,28.18 L542.39,28.17 L544.38,28.16 L546.38,28.16 L548.37,28.15 L550.36,28.14 L552.35,28.14 L554.35,28.13 L556.34,28.13 L558.33,28.12 L560.33,28.12 L562.32,28.11 L564.31,28.11 L566.31,28.10 L568.30,28.10 L570.29,28.09 L572.29,28.09 L574.28,28.09 L576.27,28.08 L578.27,28.08 L580.26,28.08 L582.25,28.07 L584.25,28.07 L586.24,28.07 L588.23,28.06 L590.23,28.06 L592.22,28.06 L594.21,28.06 L596.20,28.05 L598.20,28.05 L600.19,28.05 L602.18,28.05 L604.18,28.05 L606.17,28.04 L608.16,28.04 L610.16,28.04 L612.15,28.04 L614.14,28.04 L616.14,28.03 L618.13,28.03 L620.12,28.03 L622.12,28.03 L624.11,28.03 L626.10,28.03 L628.10,28.03 L630.09,28.03 L632.08,28.02 L634.08,28.02 L636.07,28.02 L638.06,28.02 L640.05,28.02 L642.05,28.02 L644.04,28.02 L646.03,28.02 L648.03,28.02 L650.02,28.02 L652.01,28.02 L654.01,28.02 L656.00,28.01" fill="none" stroke="#eda100" stroke-width="2.25" stroke-linejoin="round" stroke-linecap="round"/>
</g>
<text x="282.51" y="167.84" class="curve-label" text-anchor="start" fill="#eda100">a = 3</text>
<g clip-path="url(#clip-4312688912)">
<path d="M60.04,396.00 L62.03,396.00 L64.03,396.00 L66.02,396.00 L68.01,396.00 L70.01,396.00 L72.00,396.00 L73.99,396.00 L75.99,396.00 L77.98,396.00 L79.97,396.00 L81.96,396.00 L83.96,396.00 L85.95,396.00 L87.94,396.00 L89.94,396.00 L91.93,396.00 L93.92,396.00 L95.92,396.00 L97.91,396.00 L99.90,396.00 L101.90,396.00 L103.89,396.00 L105.88,396.00 L107.88,396.00 L109.87,396.00 L111.86,396.00 L113.86,396.00 L115.85,396.00 L117.84,396.00 L119.84,396.00 L121.83,396.00 L123.82,396.00 L125.81,396.00 L127.81,396.00 L129.80,395.99 L131.79,395.99 L133.79,395.99 L135.78,395.99 L137.77,395.99 L139.77,395.98 L141.76,395.98 L143.75,395.97 L145.75,395.97 L147.74,395.96 L149.73,395.95 L151.73,395.95 L153.72,395.94 L155.71,395.92 L157.71,395.91 L159.70,395.89 L161.69,395.88 L163.68,395.86 L165.68,395.84 L167.67,395.81 L169.66,395.78 L171.66,395.75 L173.65,395.72 L175.64,395.68 L177.64,395.63 L179.63,395.58 L181.62,395.53 L183.62,395.47 L185.61,395.41 L187.60,395.33 L189.60,395.26 L191.59,395.17 L193.58,395.08 L195.58,394.98 L197.57,394.87 L199.56,394.75 L201.56,394.62 L203.55,394.48 L205.54,394.33 L207.53,394.17 L209.53,394.00 L211.52,393.81 L213.51,393.62 L215.51,393.41 L217.50,393.18 L219.49,392.94 L221.49,392.68 L223.48,392.41 L225.47,392.12 L227.47,391.81 L229.46,391.49 L231.45,391.15 L233.45,390.78 L235.44,390.40 L237.43,390.00 L239.43,389.57 L241.42,389.13 L243.41,388.66 L245.41,388.17 L247.40,387.66 L249.39,387.12 L251.38,386.56 L253.38,385.97 L255.37,385.36 L257.36,384.72 L259.36,384.05 L261.35,383.36 L263.34,382.64 L265.34,381.89 L267.33,381.12 L269.32,380.31 L271.32,379.48 L273.31,378.61 L275.30,377.72 L277.30,376.80 L279.29,375.84 L281.28,374.86 L283.28,373.84 L285.27,372.80 L287.26,371.72 L289.26,370.61 L291.25,369.47 L293.24,368.30 L295.23,367.09 L297.23,365.86 L299.22,364.59 L301.21,363.29 L303.21,361.96 L305.20,360.59 L307.19,359.20 L309.19,357.77 L311.18,356.31 L313.17,354.82 L315.17,353.30 L317.16,351.75 L319.15,350.17 L321.15,348.56 L323.14,346.91 L325.13,345.24 L327.13,343.54 L329.12,341.81 L331.11,340.05 L333.11,338.26 L335.10,336.44 L337.09,334.60 L339.08,332.73 L341.08,330.83 L343.07,328.90 L345.06,326.95 L347.06,324.98 L349.05,322.98 L351.04,320.96 L353.04,318.91 L355.03,316.84 L357.02,314.75 L359.02,312.64 L361.01,310.50 L363.00,308.35 L365.00,306.18 L366.99,303.98 L368.98,301.77 L370.98,299.55 L372.97,297.30 L374.96,295.04 L376.96,292.76 L378.95,290.47 L380.94,288.17 L382.93,285.85 L384.93,283.52 L386.92,281.18 L388.91,278.82 L390.91,276.46 L392.90,274.08 L394.89,271.70 L396.89,269.31 L398.88,266.91 L400.87,264.51 L402.87,262.10 L404.86,259.68 L406.85,257.26 L408.85,254.84 L410.84,252.41 L412.83,249.98 L414.83,247.55 L416.82,245.12 L418.81,242.69 L420.80,240.26 L422.80,237.82 L424.79,235.40 L426.78,232.97 L428.78,230.55 L430.77,228.13 L432.76,225.71 L434.76,223.30 L436.75,220.89 L438.74,218.50 L440.74,216.10 L442.73,213.72 L444.72,211.34 L446.72,208.97 L448.71,206.61 L450.70,204.26 L452.70,201.92 L454.69,199.59 L456.68,197.27 L458.68,194.97 L460.67,192.67 L462.66,190.39 L464.65,188.12 L466.65,185.86 L468.64,183.62 L470.63,181.39 L472.63,179.17 L474.62,176.97 L476.61,174.78 L478.61,172.61 L480.60,170.46 L482.59,168.32 L484.59,166.20 L486.58,164.10 L488.57,162.01 L490.57,159.94 L492.56,157.88 L494.55,155.85 L496.55,153.83 L498.54,151.83 L500.53,149.85 L502.53,147.89 L504.52,145.95 L506.51,144.02 L508.50,142.12 L510.50,140.23 L512.49,138.37 L514.48,136.52 L516.48,134.69 L518.47,132.88 L520.46,131.10 L522.46,129.33 L524.45,127.58 L526.44,125.85 L528.44,124.15 L530.43,122.46 L532.42,120.79 L534.42,119.14 L536.41,117.52 L538.40,115.91 L540.40,114.32 L542.39,112.76 L544.38,111.21 L546.38,109.69 L548.37,108.18 L550.36,106.69 L552.35,105.23 L554.35,103.78 L556.34,102.36 L558.33,100.95 L560.33,99.57 L562.32,98.20 L564.31,96.85 L566.31,95.53 L568.30,94.22 L570.29,92.93 L572.29,91.66 L574.28,90.41 L576.27,89.18 L578.27,87.97 L580.26,86.77 L582.25,85.60 L584.25,84.44 L586.24,83.30 L588.23,82.18 L590.23,81.08 L592.22,79.99 L594.21,78.93 L596.20,77.88 L598.20,76.85 L600.19,75.83 L602.18,74.84 L604.18,73.85 L606.17,72.89 L608.16,71.94 L610.16,71.01 L612.15,70.10 L614.14,69.20 L616.14,68.32 L618.13,67.45 L620.12,66.60 L622.12,65.76 L624.11,64.94 L626.10,64.13 L628.10,63.34 L630.09,62.56 L632.08,61.80 L634.08,61.05 L636.07,60.32 L638.06,59.60 L640.05,58.89 L642.05,58.20 L644.04,57.52 L646.03,56.85 L648.03,56.20 L650.02,55.56 L652.01,54.93 L654.01,54.31 L656.00,53.71" fill="none" stroke="#e34948" stroke-width="2.25" stroke-linejoin="round" stroke-linecap="round"/>
</g>
<text x="505.01" y="241.44" class="curve-label" text-anchor="start" fill="#e34948">a = 10</text>
</svg>