<?xml version="1.0" encoding="UTF-8"?>
<svg viewBox="0 0 680 420" xmlns="http://www.w3.org/2000/svg" font-family="system-ui, -apple-system, 'Segoe UI', sans-serif" class="nr-chart">

<style>
  .nr-chart { --grid: #e1e0d9; --baseline: #c3c2b7; --text-primary: #0b0b0b; --text-secondary: #52514e; --muted: #898781; }
  @media (prefers-color-scheme: dark) {
    :root:not([data-theme="light"]) .nr-chart { --grid: #2c2c2a; --baseline: #383835; --text-primary: #ffffff; --text-secondary: #c3c2b7; --muted: #898781; }
  }
  :root[data-theme="dark"] .nr-chart { --grid: #2c2c2a; --baseline: #383835; --text-primary: #ffffff; --text-secondary: #c3c2b7; --muted: #898781; }
  .nr-chart .grid { stroke: var(--grid); stroke-width: 1; }
  .nr-chart .baseline { stroke: var(--baseline); stroke-width: 1.25; }
  .nr-chart .tick-label { fill: var(--muted); font-size: 12px; }
  .nr-chart .axis-label { fill: var(--text-secondary); font-size: 13px; }
  .nr-chart .title { fill: var(--text-primary); font-size: 15px; font-weight: 600; }
  .nr-chart .curve-label { font-size: 12.5px; font-weight: 600; }
  .nr-chart .asymptote { stroke: var(--muted); stroke-width: 1; stroke-dasharray: 3 3; }
</style>

<text x="50" y="18" class="title">Standard normal distribution: p.d.f. and c.d.f.</text>
<line x1="50.00" y1="28" x2="50.00" y2="376.00" class="grid"/>
<text x="50.00" y="394" class="tick-label" text-anchor="middle">-4</text>
<line x1="125.75" y1="28" x2="125.75" y2="376.00" class="grid"/>
<text x="125.75" y="394" class="tick-label" text-anchor="middle">-3</text>
<line x1="201.50" y1="28" x2="201.50" y2="376.00" class="grid"/>
<text x="201.50" y="394" class="tick-label" text-anchor="middle">-2</text>
<line x1="277.25" y1="28" x2="277.25" y2="376.00" class="grid"/>
<text x="277.25" y="394" class="tick-label" text-anchor="middle">-1</text>
<line x1="353.00" y1="28" x2="353.00" y2="376.00" class="grid"/>
<text x="353.00" y="394" class="tick-label" text-anchor="middle">0</text>
<line x1="428.75" y1="28" x2="428.75" y2="376.00" class="grid"/>
<text x="428.75" y="394" class="tick-label" text-anchor="middle">1</text>
<line x1="504.50" y1="28" x2="504.50" y2="376.00" class="grid"/>
<text x="504.50" y="394" class="tick-label" text-anchor="middle">2</text>
<line x1="580.25" y1="28" x2="580.25" y2="376.00" class="grid"/>
<text x="580.25" y="394" class="tick-label" text-anchor="middle">3</text>
<line x1="656.00" y1="28" x2="656.00" y2="376.00" class="grid"/>
<text x="656.00" y="394" class="tick-label" text-anchor="middle">4</text>
<line x1="50" y1="376.00" x2="656.00" y2="376.00" class="grid"/>
<text x="40" y="380.00" class="tick-label" text-anchor="end">0</text>
<line x1="50" y1="306.40" x2="656.00" y2="306.40" class="grid"/>
<text x="40" y="310.40" class="tick-label" text-anchor="end">0.2</text>
<line x1="50" y1="236.80" x2="656.00" y2="236.80" class="grid"/>
<text x="40" y="240.80" class="tick-label" text-anchor="end">0.4</text>
<line x1="50" y1="167.20" x2="656.00" y2="167.20" class="grid"/>
<text x="40" y="171.20" class="tick-label" text-anchor="end">0.6</text>
<line x1="50" y1="97.60" x2="656.00" y2="97.60" class="grid"/>
<text x="40" y="101.60" class="tick-label" text-anchor="end">0.8</text>
<line x1="50" y1="28.00" x2="656.00" y2="28.00" class="grid"/>
<text x="40" y="32.00" class="tick-label" text-anchor="end">1</text>
<line x1="50" y1="376.00" x2="656.00" y2="376.00" class="baseline"/>
<line x1="353.00" y1="28" x2="353.00" y2="376.00" class="baseline"/>
<text x="353.00" y="414" class="axis-label" text-anchor="middle">x (standard deviations from μ)</text>
<text x="14" y="202.00" class="axis-label" text-anchor="middle" transform="rotate(-90 14 202.00)"></text>
<clipPath id="clip-4312688816"><rect x="50" y="28" width="606.00" height="348.00"/></clipPath>
<g clip-path="url(#clip-4312688816)">
<path d="M50.00,375.95 L52.03,375.95 L54.05,375.94 L56.08,375.94 L58.11,375.93 L60.13,375.92 L62.16,375.91 L64.19,375.90 L66.21,375.89 L68.24,375.88 L70.27,375.87 L72.29,375.86 L74.32,375.84 L76.35,375.82 L78.37,375.81 L80.40,375.79 L82.43,375.76 L84.45,375.74 L86.48,375.72 L88.51,375.69 L90.54,375.66 L92.56,375.62 L94.59,375.59 L96.62,375.55 L98.64,375.51 L100.67,375.46 L102.70,375.41 L104.72,375.35 L106.75,375.30 L108.78,375.23 L110.80,375.16 L112.83,375.09 L114.86,375.01 L116.88,374.92 L118.91,374.83 L120.94,374.73 L122.96,374.62 L124.99,374.50 L127.02,374.38 L129.04,374.24 L131.07,374.10 L133.10,373.95 L135.12,373.78 L137.15,373.60 L139.18,373.42 L141.20,373.21 L143.23,373.00 L145.26,372.77 L147.28,372.52 L149.31,372.26 L151.34,371.99 L153.36,371.69 L155.39,371.38 L157.42,371.05 L159.44,370.69 L161.47,370.32 L163.50,369.93 L165.53,369.51 L167.55,369.07 L169.58,368.60 L171.61,368.11 L173.63,367.59 L175.66,367.04 L177.69,366.46 L179.71,365.86 L181.74,365.22 L183.77,364.55 L185.79,363.85 L187.82,363.12 L189.85,362.35 L191.87,361.55 L193.90,360.70 L195.93,359.83 L197.95,358.91 L199.98,357.95 L202.01,356.96 L204.03,355.92 L206.06,354.85 L208.09,353.73 L210.11,352.57 L212.14,351.36 L214.17,350.11 L216.19,348.82 L218.22,347.49 L220.25,346.11 L222.27,344.68 L224.30,343.22 L226.33,341.70 L228.35,340.15 L230.38,338.55 L232.41,336.90 L234.43,335.22 L236.46,333.49 L238.49,331.72 L240.52,329.90 L242.54,328.05 L244.57,326.16 L246.60,324.24 L248.62,322.27 L250.65,320.27 L252.68,318.24 L254.70,316.18 L256.73,314.09 L258.76,311.97 L260.78,309.83 L262.81,307.66 L264.84,305.48 L266.86,303.27 L268.89,301.05 L270.92,298.82 L272.94,296.58 L274.97,294.33 L277.00,292.08 L279.02,289.82 L281.05,287.57 L283.08,285.33 L285.10,283.10 L287.13,280.87 L289.16,278.67 L291.18,276.49 L293.21,274.33 L295.24,272.19 L297.26,270.09 L299.29,268.02 L301.32,266.00 L303.34,264.01 L305.37,262.07 L307.40,260.18 L309.42,258.34 L311.45,256.56 L313.48,254.83 L315.51,253.18 L317.53,251.58 L319.56,250.06 L321.59,248.61 L323.61,247.23 L325.64,245.94 L327.67,244.72 L329.69,243.59 L331.72,242.54 L333.75,241.58 L335.77,240.71 L337.80,239.94 L339.83,239.25 L341.85,238.66 L343.88,238.17 L345.91,237.78 L347.93,237.48 L349.96,237.28 L351.99,237.18 L354.01,237.18 L356.04,237.28 L358.07,237.48 L360.09,237.78 L362.12,238.17 L364.15,238.66 L366.17,239.25 L368.20,239.94 L370.23,240.71 L372.25,241.58 L374.28,242.54 L376.31,243.59 L378.33,244.72 L380.36,245.94 L382.39,247.23 L384.41,248.61 L386.44,250.06 L388.47,251.58 L390.49,253.18 L392.52,254.83 L394.55,256.56 L396.58,258.34 L398.60,260.18 L400.63,262.07 L402.66,264.01 L404.68,266.00 L406.71,268.02 L408.74,270.09 L410.76,272.19 L412.79,274.33 L414.82,276.49 L416.84,278.67 L418.87,280.87 L420.90,283.10 L422.92,285.33 L424.95,287.57 L426.98,289.82 L429.00,292.08 L431.03,294.33 L433.06,296.58 L435.08,298.82 L437.11,301.05 L439.14,303.27 L441.16,305.48 L443.19,307.66 L445.22,309.83 L447.24,311.97 L449.27,314.09 L451.30,316.18 L453.32,318.24 L455.35,320.27 L457.38,322.27 L459.40,324.24 L461.43,326.16 L463.46,328.05 L465.48,329.90 L467.51,331.72 L469.54,333.49 L471.57,335.22 L473.59,336.90 L475.62,338.55 L477.65,340.15 L479.67,341.70 L481.70,343.22 L483.73,344.68 L485.75,346.11 L487.78,347.49 L489.81,348.82 L491.83,350.11 L493.86,351.36 L495.89,352.57 L497.91,353.73 L499.94,354.85 L501.97,355.92 L503.99,356.96 L506.02,357.95 L508.05,358.91 L510.07,359.83 L512.10,360.70 L514.13,361.55 L516.15,362.35 L518.18,363.12 L520.21,363.85 L522.23,364.55 L524.26,365.22 L526.29,365.86 L528.31,366.46 L530.34,367.04 L532.37,367.59 L534.39,368.11 L536.42,368.60 L538.45,369.07 L540.47,369.51 L542.50,369.93 L544.53,370.32 L546.56,370.69 L548.58,371.05 L550.61,371.38 L552.64,371.69 L554.66,371.99 L556.69,372.26 L558.72,372.52 L560.74,372.77 L562.77,373.00 L564.80,373.21 L566.82,373.42 L568.85,373.60 L570.88,373.78 L572.90,373.95 L574.93,374.10 L576.96,374.24 L578.98,374.38 L581.01,374.50 L583.04,374.62 L585.06,374.73 L587.09,374.83 L589.12,374.92 L591.14,375.01 L593.17,375.09 L595.20,375.16 L597.22,375.23 L599.25,375.30 L601.28,375.35 L603.30,375.41 L605.33,375.46 L607.36,375.51 L609.38,375.55 L611.41,375.59 L613.44,375.62 L615.46,375.66 L617.49,375.69 L619.52,375.72 L621.55,375.74 L623.57,375.76 L625.60,375.79 L627.63,375.81 L629.65,375.82 L631.68,375.84 L633.71,375.86 L635.73,375.87 L637.76,375.88 L639.79,375.89 L641.81,375.90 L643.84,375.91 L645.87,375.92 L647.89,375.93 L649.92,375.94 L651.95,375.94 L653.97,375.95 L656.00,375.95" fill="none" stroke="#2a78d6" stroke-width="2.25" stroke-linejoin="round" stroke-linecap="round"/>
</g>
<text x="372.36" y="234.72" class="curve-label" text-anchor="start" fill="#2a78d6">p(x)</text>
<g clip-path="url(#clip-4312688816)">
<path d="M50.00,375.99 L52.03,375.99 L54.05,375.99 L56.08,375.98 L58.11,375.98 L60.13,375.98 L62.16,375.98 L64.19,375.98 L66.21,375.97 L68.24,375.97 L70.27,375.97 L72.29,375.96 L74.32,375.96 L76.35,375.95 L78.37,375.95 L80.40,375.94 L82.43,375.94 L84.45,375.93 L86.48,375.92 L88.51,375.92 L90.54,375.91 L92.56,375.90 L94.59,375.89 L96.62,375.88 L98.64,375.86 L100.67,375.85 L102.70,375.83 L104.72,375.82 L106.75,375.80 L108.78,375.78 L110.80,375.76 L112.83,375.74 L114.86,375.71 L116.88,375.68 L118.91,375.65 L120.94,375.62 L122.96,375.58 L124.99,375.55 L127.02,375.50 L129.04,375.46 L131.07,375.41 L133.10,375.36 L135.12,375.30 L137.15,375.24 L139.18,375.17 L141.20,375.10 L143.23,375.02 L145.26,374.94 L147.28,374.85 L149.31,374.75 L151.34,374.65 L153.36,374.54 L155.39,374.42 L157.42,374.29 L159.44,374.15 L161.47,374.01 L163.50,373.85 L165.53,373.68 L167.55,373.50 L169.58,373.31 L171.61,373.11 L173.63,372.89 L175.66,372.65 L177.69,372.41 L179.71,372.14 L181.74,371.86 L183.77,371.57 L185.79,371.25 L187.82,370.92 L189.85,370.56 L191.87,370.19 L193.90,369.79 L195.93,369.37 L197.95,368.92 L199.98,368.45 L202.01,367.96 L204.03,367.43 L206.06,366.88 L208.09,366.30 L210.11,365.69 L212.14,365.05 L214.17,364.37 L216.19,363.66 L218.22,362.92 L220.25,362.13 L222.27,361.32 L224.30,360.46 L226.33,359.56 L228.35,358.62 L230.38,357.64 L232.41,356.62 L234.43,355.55 L236.46,354.44 L238.49,353.27 L240.52,352.07 L242.54,350.81 L244.57,349.50 L246.60,348.14 L248.62,346.73 L250.65,345.26 L252.68,343.75 L254.70,342.17 L256.73,340.55 L258.76,338.86 L260.78,337.12 L262.81,335.32 L264.84,333.46 L266.86,331.55 L268.89,329.57 L270.92,327.53 L272.94,325.44 L274.97,323.28 L277.00,321.07 L279.02,318.79 L281.05,316.46 L283.08,314.06 L285.10,311.61 L287.13,309.09 L289.16,306.52 L291.18,303.88 L293.21,301.19 L295.24,298.44 L297.26,295.64 L299.29,292.77 L301.32,289.86 L303.34,286.89 L305.37,283.87 L307.40,280.79 L309.42,277.67 L311.45,274.50 L313.48,271.28 L315.51,268.01 L317.53,264.71 L319.56,261.36 L321.59,257.97 L323.61,254.54 L325.64,251.08 L327.67,247.58 L329.69,244.05 L331.72,240.50 L333.75,236.91 L335.77,233.30 L337.80,229.67 L339.83,226.02 L341.85,222.36 L343.88,218.68 L345.91,214.98 L347.93,211.28 L349.96,207.57 L351.99,203.86 L354.01,200.14 L356.04,196.43 L358.07,192.72 L360.09,189.02 L362.12,185.32 L364.15,181.64 L366.17,177.98 L368.20,174.33 L370.23,170.70 L372.25,167.09 L374.28,163.50 L376.31,159.95 L378.33,156.42 L380.36,152.92 L382.39,149.46 L384.41,146.03 L386.44,142.64 L388.47,139.29 L390.49,135.99 L392.52,132.72 L394.55,129.50 L396.58,126.33 L398.60,123.21 L400.63,120.13 L402.66,117.11 L404.68,114.14 L406.71,111.23 L408.74,108.36 L410.76,105.56 L412.79,102.81 L414.82,100.12 L416.84,97.48 L418.87,94.91 L420.90,92.39 L422.92,89.94 L424.95,87.54 L426.98,85.21 L429.00,82.93 L431.03,80.72 L433.06,78.56 L435.08,76.47 L437.11,74.43 L439.14,72.45 L441.16,70.54 L443.19,68.68 L445.22,66.88 L447.24,65.14 L449.27,63.45 L451.30,61.83 L453.32,60.25 L455.35,58.74 L457.38,57.27 L459.40,55.86 L461.43,54.50 L463.46,53.19 L465.48,51.93 L467.51,50.73 L469.54,49.56 L471.57,48.45 L473.59,47.38 L475.62,46.36 L477.65,45.38 L479.67,44.44 L481.70,43.54 L483.73,42.68 L485.75,41.87 L487.78,41.08 L489.81,40.34 L491.83,39.63 L493.86,38.95 L495.89,38.31 L497.91,37.70 L499.94,37.12 L501.97,36.57 L503.99,36.04 L506.02,35.55 L508.05,35.08 L510.07,34.63 L512.10,34.21 L514.13,33.81 L516.15,33.44 L518.18,33.08 L520.21,32.75 L522.23,32.43 L524.26,32.14 L526.29,31.86 L528.31,31.59 L530.34,31.35 L532.37,31.11 L534.39,30.89 L536.42,30.69 L538.45,30.50 L540.47,30.32 L542.50,30.15 L544.53,29.99 L546.56,29.85 L548.58,29.71 L550.61,29.58 L552.64,29.46 L554.66,29.35 L556.69,29.25 L558.72,29.15 L560.74,29.06 L562.77,28.98 L564.80,28.90 L566.82,28.83 L568.85,28.76 L570.88,28.70 L572.90,28.64 L574.93,28.59 L576.96,28.54 L578.98,28.50 L581.01,28.45 L583.04,28.42 L585.06,28.38 L587.09,28.35 L589.12,28.32 L591.14,28.29 L593.17,28.26 L595.20,28.24 L597.22,28.22 L599.25,28.20 L601.28,28.18 L603.30,28.17 L605.33,28.15 L607.36,28.14 L609.38,28.12 L611.41,28.11 L613.44,28.10 L615.46,28.09 L617.49,28.08 L619.52,28.08 L621.55,28.07 L623.57,28.06 L625.60,28.06 L627.63,28.05 L629.65,28.05 L631.68,28.04 L633.71,28.04 L635.73,28.03 L637.76,28.03 L639.79,28.03 L641.81,28.02 L643.84,28.02 L645.87,28.02 L647.89,28.02 L649.92,28.02 L651.95,28.01 L653.97,28.01 L656.00,28.01" fill="none" stroke="#1baf7a" stroke-width="2.25" stroke-linejoin="round" stroke-linecap="round"/>
</g>
<text x="168.78" y="364.27" class="curve-label" text-anchor="end" fill="#1baf7a">cdf(x)</text>
</svg>