<svg xmlns="http://www.w3.org/2000/svg" viewBox="0 0 920 800" font-family="Helvetica Neue, Arial, sans-serif">
<title>Crout's algorithm fill order for LU decomposition (after Numerical Recipes Fig. 2.3.1)</title>
<defs><marker id="ah" markerWidth="7" markerHeight="7" refX="5" refY="3.5" orient="auto"><path d="M0,0 L7,3.5 L0,7 z" fill="#7a8090"/></marker><marker id="ah-blue" markerWidth="7" markerHeight="7" refX="5" refY="3.5" orient="auto"><path d="M0,0 L7,3.5 L0,7 z" fill="#2f6fed"/></marker></defs>
<text x="232.5" y="106" font-size="14.5" fill="#2f6fed" text-anchor="middle">column 0</text>
<line x1="196" y1="114" x2="269" y2="114" stroke="#2f6fed" stroke-width="2" marker-end="url(#ah-blue)"/>
<text x="317.5" y="106" font-size="14.5" fill="#2f6fed" text-anchor="middle">column 1</text>
<line x1="281" y1="114" x2="354" y2="114" stroke="#2f6fed" stroke-width="2" marker-end="url(#ah-blue)"/>
<text x="402.5" y="106" font-size="14.5" fill="#2f6fed" text-anchor="middle">column 2</text>
<line x1="366" y1="114" x2="439" y2="114" stroke="#2f6fed" stroke-width="2" marker-end="url(#ah-blue)"/>
<text x="487.5" y="106" font-size="14.5" fill="#2f6fed" text-anchor="middle">column 3</text>
<line x1="451" y1="114" x2="524" y2="114" stroke="#2f6fed" stroke-width="2" marker-end="url(#ah-blue)"/>
<rect x="190" y="120" width="85" height="85" fill="#dbe7ff" stroke="#c7cbd1" stroke-width="1"/>
<rect x="190" y="205" width="85" height="85" fill="#ffffff" stroke="#c7cbd1" stroke-width="1"/>
<rect x="190" y="290" width="85" height="85" fill="#ffe6d9" stroke="#c7cbd1" stroke-width="1"/>
<rect x="190" y="375" width="85" height="85" fill="#ffe6d9" stroke="#c7cbd1" stroke-width="1"/>
<rect x="275" y="120" width="85" height="85" fill="#ffffff" stroke="#c7cbd1" stroke-width="1"/>
<rect x="275" y="205" width="85" height="85" fill="#dbe7ff" stroke="#c7cbd1" stroke-width="1"/>
<rect x="275" y="290" width="85" height="85" fill="#ffe6d9" stroke="#c7cbd1" stroke-width="1"/>
<rect x="275" y="375" width="85" height="85" fill="#ffe6d9" stroke="#c7cbd1" stroke-width="1"/>
<rect x="360" y="120" width="85" height="85" fill="#ffe6d9" stroke="#c7cbd1" stroke-width="1"/>
<rect x="360" y="205" width="85" height="85" fill="#ffe6d9" stroke="#c7cbd1" stroke-width="1"/>
<rect x="360" y="290" width="85" height="85" fill="#dbe7ff" stroke="#c7cbd1" stroke-width="1"/>
<rect x="360" y="375" width="85" height="85" fill="#ffffff" stroke="#c7cbd1" stroke-width="1"/>
<rect x="445" y="120" width="85" height="85" fill="#ffe6d9" stroke="#c7cbd1" stroke-width="1"/>
<rect x="445" y="205" width="85" height="85" fill="#ffe6d9" stroke="#c7cbd1" stroke-width="1"/>
<rect x="445" y="290" width="85" height="85" fill="#ffffff" stroke="#c7cbd1" stroke-width="1"/>
<rect x="445" y="375" width="85" height="85" fill="#dbe7ff" stroke="#c7cbd1" stroke-width="1"/>
<line x1="202" y1="130" x2="202" y2="446" stroke="#7a8090" stroke-width="1.3" stroke-dasharray="1,3.5" marker-end="url(#ah)"/>
<line x1="287" y1="130" x2="287" y2="446" stroke="#7a8090" stroke-width="1.3" stroke-dasharray="1,3.5" marker-end="url(#ah)"/>
<line x1="372" y1="130" x2="372" y2="446" stroke="#7a8090" stroke-width="1.3" stroke-dasharray="1,3.5" marker-end="url(#ah)"/>
<line x1="457" y1="130" x2="457" y2="446" stroke="#7a8090" stroke-width="1.3" stroke-dasharray="1,3.5" marker-end="url(#ah)"/>
<line x1="190" y1="120" x2="640" y2="570" stroke="#1a1a2e" stroke-width="2.4"/>
<line x1="232.5" y1="247.5" x2="394.5" y2="494.5" stroke="#7a8090" stroke-width="1.6" stroke-dasharray="6,4"/>
<text x="558" y="488" font-size="15" fill="#1a1a2e" transform="rotate(45 558 488)">diagonal elements (&#946;ii)</text>
<text x="337.5" y="459.5" font-size="13.5" fill="#7a8090" transform="rotate(45 337.5 459.5)">subdiagonal elements (&#945;ij)</text>
<rect x="208.5" y="140.5" width="48" height="38" fill="#ffffff" fill-opacity="0.72"/>
<text x="232.5" y="158.5" font-size="19" fill="#1a1a2e" text-anchor="middle" font-weight="600">&#946;00</text>
<text x="232.5" y="177.5" font-size="11.5" fill="#7a8090" text-anchor="middle">step 1</text>
<rect x="208.5" y="225.5" width="48" height="38" fill="#ffffff" fill-opacity="0.72"/>
<text x="232.5" y="243.5" font-size="19" fill="#1a1a2e" text-anchor="middle" font-weight="600">&#945;10</text>
<text x="232.5" y="262.5" font-size="11.5" fill="#7a8090" text-anchor="middle">step 2</text>
<rect x="208.5" y="310.5" width="48" height="38" fill="#ffffff" fill-opacity="0.72"/>
<text x="232.5" y="328.5" font-size="19" fill="#1a1a2e" text-anchor="middle" font-weight="600">&#945;20</text>
<text x="232.5" y="347.5" font-size="11.5" fill="#7a8090" text-anchor="middle">step 3</text>
<rect x="208.5" y="395.5" width="48" height="38" fill="#ffffff" fill-opacity="0.72"/>
<text x="232.5" y="413.5" font-size="19" fill="#1a1a2e" text-anchor="middle" font-weight="600">&#945;30</text>
<text x="232.5" y="432.5" font-size="11.5" fill="#7a8090" text-anchor="middle">step 4</text>
<rect x="293.5" y="140.5" width="48" height="38" fill="#ffffff" fill-opacity="0.72"/>
<text x="317.5" y="158.5" font-size="19" fill="#1a1a2e" text-anchor="middle" font-weight="600">&#946;01</text>
<text x="317.5" y="177.5" font-size="11.5" fill="#7a8090" text-anchor="middle">step 5</text>
<rect x="293.5" y="225.5" width="48" height="38" fill="#ffffff" fill-opacity="0.72"/>
<text x="317.5" y="243.5" font-size="19" fill="#1a1a2e" text-anchor="middle" font-weight="600">&#946;11</text>
<text x="317.5" y="262.5" font-size="11.5" fill="#7a8090" text-anchor="middle">step 6</text>
<rect x="293.5" y="310.5" width="48" height="38" fill="#ffffff" fill-opacity="0.72"/>
<text x="317.5" y="328.5" font-size="19" fill="#1a1a2e" text-anchor="middle" font-weight="600">&#945;21</text>
<text x="317.5" y="347.5" font-size="11.5" fill="#7a8090" text-anchor="middle">step 7</text>
<rect x="293.5" y="395.5" width="48" height="38" fill="#ffffff" fill-opacity="0.72"/>
<text x="317.5" y="413.5" font-size="19" fill="#1a1a2e" text-anchor="middle" font-weight="600">&#945;31</text>
<text x="317.5" y="432.5" font-size="11.5" fill="#7a8090" text-anchor="middle">step 8</text>
<rect x="378.5" y="140.5" width="48" height="38" fill="#ffffff" fill-opacity="0.72"/>
<text x="402.5" y="158.5" font-size="19" fill="#1a1a2e" text-anchor="middle" font-weight="600">&#946;02</text>
<text x="402.5" y="177.5" font-size="11.5" fill="#7a8090" text-anchor="middle">step 9</text>
<rect x="378.5" y="225.5" width="48" height="38" fill="#ffffff" fill-opacity="0.72"/>
<text x="402.5" y="243.5" font-size="19" fill="#1a1a2e" text-anchor="middle" font-weight="600">&#946;12</text>
<text x="402.5" y="262.5" font-size="11.5" fill="#7a8090" text-anchor="middle">step 10</text>
<rect x="378.5" y="310.5" width="48" height="38" fill="#ffffff" fill-opacity="0.72"/>
<text x="402.5" y="328.5" font-size="19" fill="#1a1a2e" text-anchor="middle" font-weight="600">&#946;22</text>
<text x="402.5" y="347.5" font-size="11.5" fill="#7a8090" text-anchor="middle">step 11</text>
<rect x="378.5" y="395.5" width="48" height="38" fill="#ffffff" fill-opacity="0.72"/>
<text x="402.5" y="413.5" font-size="19" fill="#1a1a2e" text-anchor="middle" font-weight="600">&#945;32</text>
<text x="402.5" y="432.5" font-size="11.5" fill="#7a8090" text-anchor="middle">step 12</text>
<rect x="463.5" y="140.5" width="48" height="38" fill="#ffffff" fill-opacity="0.72"/>
<text x="487.5" y="158.5" font-size="19" fill="#1a1a2e" text-anchor="middle" font-weight="600">&#946;03</text>
<text x="487.5" y="177.5" font-size="11.5" fill="#7a8090" text-anchor="middle">step 13</text>
<rect x="463.5" y="225.5" width="48" height="38" fill="#ffffff" fill-opacity="0.72"/>
<text x="487.5" y="243.5" font-size="19" fill="#1a1a2e" text-anchor="middle" font-weight="600">&#946;13</text>
<text x="487.5" y="262.5" font-size="11.5" fill="#7a8090" text-anchor="middle">step 14</text>
<rect x="463.5" y="310.5" width="48" height="38" fill="#ffffff" fill-opacity="0.72"/>
<text x="487.5" y="328.5" font-size="19" fill="#1a1a2e" text-anchor="middle" font-weight="600">&#946;23</text>
<text x="487.5" y="347.5" font-size="11.5" fill="#7a8090" text-anchor="middle">step 15</text>
<rect x="463.5" y="395.5" width="48" height="38" fill="#ffffff" fill-opacity="0.72"/>
<text x="487.5" y="413.5" font-size="19" fill="#1a1a2e" text-anchor="middle" font-weight="600">&#946;33</text>
<text x="487.5" y="432.5" font-size="11.5" fill="#7a8090" text-anchor="middle">step 16</text>
<rect x="447" y="292" width="81" height="81" fill="none" stroke="#e2703a" stroke-width="3.2"/>
<rect x="362" y="377" width="81" height="81" fill="none" stroke="#e2703a" stroke-width="3.2"/>
<line x1="523.5" y1="332.5" x2="660" y2="304" stroke="#e2703a" stroke-width="1.2" stroke-dasharray="3,3"/>
<text x="660" y="310" font-size="13.5" fill="#e2703a">"x" = &#946;23 (step 15)</text>
<text x="660" y="326" font-size="13.5" fill="#e2703a">uses previously computed</text>
<text x="660" y="342" font-size="13.5" fill="#e2703a">&#945;20, &#945;21 and &#946;03, &#946;13</text>
<line x1="438.5" y1="417.5" x2="660" y2="424" stroke="#e2703a" stroke-width="1.2" stroke-dasharray="3,3"/>
<text x="660" y="430" font-size="13.5" fill="#e2703a">"x" = &#945;32 (step 12)</text>
<text x="660" y="446" font-size="13.5" fill="#e2703a">uses previously computed</text>
<text x="660" y="462" font-size="13.5" fill="#e2703a">&#945;30, &#945;31 and &#946;02, &#946;12</text>
<rect x="190" y="555" width="20" height="20" fill="#dbe7ff" stroke="#c7cbd1"/>
<text x="220" y="570" font-size="14" fill="#1a1a2e">diagonal entry (L is fixed to 1 there)</text>
<rect x="190" y="585" width="20" height="20" fill="#ffe6d9" stroke="#c7cbd1"/>
<text x="220" y="600" font-size="14" fill="#1a1a2e">already-computed entries feeding an example step</text>
<rect x="190" y="615" width="20" height="20" fill="#ffffff" stroke="#e2703a" stroke-width="3"/>
<text x="220" y="630" font-size="14" fill="#1a1a2e">example step highlighted as "x", matching Fig. 2.3.1</text>
</svg>
