<svg xmlns="http://www.w3.org/2000/svg" viewBox="0 0 1000 1060" font-family="Helvetica Neue, Arial, sans-serif">
<title>Nonsingular vs. singular linear maps: range, nullspace, and the SVD least-squares solution (after Numerical Recipes Fig. 2.6.1)</title>
<defs><marker id="ah2" markerWidth="8" markerHeight="8" refX="6" refY="4" orient="auto"><path d="M0,0 L8,4 L0,8 z" fill="#9aa0a6"/></marker><marker id="ah-ink" markerWidth="7" markerHeight="7" refX="5" refY="3.5" orient="auto"><path d="M0,0 L7,3.5 L0,7 z" fill="#1a1a2e"/></marker></defs>
<text x="30" y="40" font-size="18" fill="#1a1a2e" font-weight="600">(a) nonsingular A: domain and codomain have the same dimension</text>
<path d="M -95,15 C -80,-45 -30,-70 15,-55 C 55,-42 70,-75 105,-58 C 130,-45 138,-10 118,18 C 100,42 108,70 78,90 C 45,112 5,95 -25,108 C -60,122 -100,100 -112,65 C -122,38 -112,45 -95,15 Z" fill="none" stroke="#1a1a2e" stroke-width="2.2" transform="translate(210 220) "/>
<path d="M -95,15 C -80,-45 -30,-70 15,-55 C 55,-42 70,-75 105,-58 C 130,-45 138,-10 118,18 C 100,42 108,70 78,90 C 45,112 5,95 -25,108 C -60,122 -100,100 -112,65 C -122,38 -112,45 -95,15 Z" fill="none" stroke="#1a1a2e" stroke-width="2.2" transform="translate(720 220) "/>
<circle cx="210" cy="220" r="3.2" fill="#1a1a2e"/>
<circle cx="720" cy="220" r="3.2" fill="#1a1a2e"/>
<line x1="210" y1="220" x2="228" y2="125" stroke="#1a1a2e" stroke-width="2.6" marker-end="url(#ah-ink)"/>
<text x="238" y="160" font-size="16" fill="#1a1a2e" font-weight="600">x</text>
<line x1="720" y1="220" x2="746" y2="125" stroke="#2f6fed" stroke-width="3.2" marker-end="url(#ah2)"/>
<text x="758" y="160" font-size="16" fill="#2f6fed" font-weight="600">b</text>
<path d="M 330,150 Q 465.0,60 600,150" fill="none" stroke="#9aa0a6" stroke-width="5" marker-end="url(#ah2)"/>
<circle cx="465.0" cy="102" r="17" fill="#ffffff" stroke="#9aa0a6" stroke-width="1.5"/>
<text x="465.0" y="108" font-size="16" fill="#1a1a2e" text-anchor="middle" font-weight="600">A</text>
<text x="465.0" y="370" font-size="16" fill="#1a1a2e" text-anchor="middle">A &#183; x = b</text>
<text x="30" y="390" font-size="18" fill="#1a1a2e" font-weight="600">(b) singular A: the domain collapses onto a lower-dimensional range</text>
<path d="M -95,15 C -80,-45 -30,-70 15,-55 C 55,-42 70,-75 105,-58 C 130,-45 138,-10 118,18 C 100,42 108,70 78,90 C 45,112 5,95 -25,108 C -60,122 -100,100 -112,65 C -122,38 -112,45 -95,15 Z" fill="none" stroke="#1a1a2e" stroke-width="2.2" transform="translate(210 650) "/>
<line x1="93.64860869840349" y1="698.8605540511236" x2="209.6484852226538" y2="523.8061949327094" stroke="#1a1a2e" stroke-width="2.6"/>
<circle cx="151.64854696052865" cy="611.3333744919165" r="4" fill="#1a1a2e"/>
<line x1="143.6641398750932" y1="732.0033759151952" x2="259.66401639934355" y2="556.949016796781" stroke="#1a1a2e" stroke-width="2.6"/>
<circle cx="218.23548906925413" cy="619.4684307676432" r="5" fill="#e2703a"/>
<line x1="197.84763198317376" y1="767.9080996012726" x2="313.8475085074241" y2="592.8537404828585" stroke="#1a1a2e" stroke-width="2.6"/>
<circle cx="244.79996295727508" cy="697.0527637676288" r="5" fill="#e2703a"/>
<rect x="6" y="690.8605540511236" width="150" height="20" fill="#ffffff" fill-opacity="0.85"/>
<text x="10" y="705.8605540511236" font-size="14" fill="#1a1a2e">nullspace of A</text>
<rect x="6" y="611.4684307676432" width="210" height="20" fill="#ffffff" fill-opacity="0.85"/>
<text x="10" y="626.4684307676432" font-size="14" fill="#1a1a2e">SVD solution of A&#183;x=c&#8242;</text>
<rect x="39.799962957275085" y="711.0527637676288" width="200" height="20" fill="#ffffff" fill-opacity="0.85"/>
<text x="43.799962957275085" y="726.0527637676288" font-size="14" fill="#1a1a2e">SVD solution of A&#183;x=d</text>
<line x1="530" y1="720" x2="910" y2="580" stroke="#1a1a2e" stroke-width="2.6"/>
<text x="870" y="565" font-size="15" fill="#1a1a2e">range of A</text>
<circle cx="610" cy="691" r="5" fill="#1a1a2e"/>
<text x="600" y="719" font-size="15" fill="#1a1a2e" text-anchor="middle">d</text>
<circle cx="790" cy="623" r="5" fill="#e2703a"/>
<text x="808" y="613" font-size="15" fill="#e2703a" text-anchor="middle">c&#8242;</text>
<circle cx="815" cy="695" r="5" fill="#7a8090"/>
<text x="831" y="713" font-size="15" fill="#7a8090" text-anchor="middle">c</text>
<line x1="815" y1="695" x2="790" y2="623" stroke="#7a8090" stroke-width="1.4" stroke-dasharray="4,3"/>
<text x="816.5" y="667.0" font-size="12" fill="#7a8090">closest point in range</text>
<path d="M 330,740 Q 465.0,815 570,720" fill="none" stroke="#9aa0a6" stroke-width="5" marker-end="url(#ah2)"/>
<circle cx="465.0" cy="800" r="17" fill="#ffffff" stroke="#9aa0a6" stroke-width="1.5"/>
<text x="465.0" y="806" font-size="16" fill="#1a1a2e" text-anchor="middle" font-weight="600">A</text>
<circle cx="200" cy="910" r="5" fill="#e2703a"/>
<text x="215" y="915" font-size="14" fill="#1a1a2e">SVD picks the solution of smallest length (closest to the origin)</text>
<circle cx="200" cy="938" r="5" fill="#7a8090"/>
<text x="215" y="943" font-size="14" fill="#1a1a2e">c lies outside the range: no exact solution, SVD returns the least-squares point c&#8242;</text>
</svg>
