<svg xmlns="http://www.w3.org/2000/svg" viewBox="0 0 900 700" font-family="Helvetica Neue, Arial, sans-serif">
<title>Unit balls for the 1-norm, 2-norm (Frobenius/Euclidean), 4-norm, and infinity-norm (after Wikipedia's Norm (mathematics) article)</title>
<defs><marker id="ah-ink" markerWidth="8" markerHeight="8" refX="6" refY="4" orient="auto"><path d="M0,0 L8,4 L0,8 z" fill="#7a8090"/></marker></defs>
<line x1="53.0" y1="300" x2="547.0" y2="300" stroke="#7a8090" stroke-width="1.3" marker-end="url(#ah-ink)"/>
<line x1="300" y1="547.0" x2="300" y2="53.0" stroke="#7a8090" stroke-width="1.3" marker-end="url(#ah-ink)"/>
<path d="M 490.00,300.00 L 489.87,299.87 L 489.48,299.48 L 488.83,298.83 L 487.92,297.92 L 486.76,296.76 L 485.35,295.35 L 483.69,293.69 L 481.79,291.79 L 479.65,289.65 L 477.27,287.27 L 474.67,284.67 L 471.86,281.86 L 468.83,278.83 L 465.60,275.60 L 462.18,272.18 L 458.57,268.57 L 454.79,264.79 L 450.84,260.84 L 446.74,256.74 L 442.50,252.50 L 438.13,248.13 L 433.64,243.64 L 429.04,239.04 L 424.36,234.36 L 419.59,229.59 L 414.75,224.75 L 409.86,219.86 L 404.93,214.93 L 399.97,209.97 L 395.00,205.00 L 390.03,200.03 L 385.07,195.07 L 380.14,190.14 L 375.25,185.25 L 370.41,180.41 L 365.64,175.64 L 360.96,170.96 L 356.36,166.36 L 351.87,161.87 L 347.50,157.50 L 343.26,153.26 L 339.16,149.16 L 335.21,145.21 L 331.43,141.43 L 327.82,137.82 L 324.40,134.40 L 321.17,131.17 L 318.14,128.14 L 315.33,125.33 L 312.73,122.73 L 310.35,120.35 L 308.21,118.21 L 306.31,116.31 L 304.65,114.65 L 303.24,113.24 L 302.08,112.08 L 301.17,111.17 L 300.52,110.52 L 300.13,110.13 L 300.00,110.00 L 299.87,110.13 L 299.48,110.52 L 298.83,111.17 L 297.92,112.08 L 296.76,113.24 L 295.35,114.65 L 293.69,116.31 L 291.79,118.21 L 289.65,120.35 L 287.27,122.73 L 284.67,125.33 L 281.86,128.14 L 278.83,131.17 L 275.60,134.40 L 272.18,137.82 L 268.57,141.43 L 264.79,145.21 L 260.84,149.16 L 256.74,153.26 L 252.50,157.50 L 248.13,161.87 L 243.64,166.36 L 239.04,170.96 L 234.36,175.64 L 229.59,180.41 L 224.75,185.25 L 219.86,190.14 L 214.93,195.07 L 209.97,200.03 L 205.00,205.00 L 200.03,209.97 L 195.07,214.93 L 190.14,219.86 L 185.25,224.75 L 180.41,229.59 L 175.64,234.36 L 170.96,239.04 L 166.36,243.64 L 161.87,248.13 L 157.50,252.50 L 153.26,256.74 L 149.16,260.84 L 145.21,264.79 L 141.43,268.57 L 137.82,272.18 L 134.40,275.60 L 131.17,278.83 L 128.14,281.86 L 125.33,284.67 L 122.73,287.27 L 120.35,289.65 L 118.21,291.79 L 116.31,293.69 L 114.65,295.35 L 113.24,296.76 L 112.08,297.92 L 111.17,298.83 L 110.52,299.48 L 110.13,299.87 L 110.00,300.00 L 110.13,300.13 L 110.52,300.52 L 111.17,301.17 L 112.08,302.08 L 113.24,303.24 L 114.65,304.65 L 116.31,306.31 L 118.21,308.21 L 120.35,310.35 L 122.73,312.73 L 125.33,315.33 L 128.14,318.14 L 131.17,321.17 L 134.40,324.40 L 137.82,327.82 L 141.43,331.43 L 145.21,335.21 L 149.16,339.16 L 153.26,343.26 L 157.50,347.50 L 161.87,351.87 L 166.36,356.36 L 170.96,360.96 L 175.64,365.64 L 180.41,370.41 L 185.25,375.25 L 190.14,380.14 L 195.07,385.07 L 200.03,390.03 L 205.00,395.00 L 209.97,399.97 L 214.93,404.93 L 219.86,409.86 L 224.75,414.75 L 229.59,419.59 L 234.36,424.36 L 239.04,429.04 L 243.64,433.64 L 248.13,438.13 L 252.50,442.50 L 256.74,446.74 L 260.84,450.84 L 264.79,454.79 L 268.57,458.57 L 272.18,462.18 L 275.60,465.60 L 278.83,468.83 L 281.86,471.86 L 284.67,474.67 L 287.27,477.27 L 289.65,479.65 L 291.79,481.79 L 293.69,483.69 L 295.35,485.35 L 296.76,486.76 L 297.92,487.92 L 298.83,488.83 L 299.48,489.48 L 299.87,489.87 L 300.00,490.00 L 300.13,489.87 L 300.52,489.48 L 301.17,488.83 L 302.08,487.92 L 303.24,486.76 L 304.65,485.35 L 306.31,483.69 L 308.21,481.79 L 310.35,479.65 L 312.73,477.27 L 315.33,474.67 L 318.14,471.86 L 321.17,468.83 L 324.40,465.60 L 327.82,462.18 L 331.43,458.57 L 335.21,454.79 L 339.16,450.84 L 343.26,446.74 L 347.50,442.50 L 351.87,438.13 L 356.36,433.64 L 360.96,429.04 L 365.64,424.36 L 370.41,419.59 L 375.25,414.75 L 380.14,409.86 L 385.07,404.93 L 390.03,399.97 L 395.00,395.00 L 399.97,390.03 L 404.93,385.07 L 409.86,380.14 L 414.75,375.25 L 419.59,370.41 L 424.36,365.64 L 429.04,360.96 L 433.64,356.36 L 438.13,351.87 L 442.50,347.50 L 446.74,343.26 L 450.84,339.16 L 454.79,335.21 L 458.57,331.43 L 462.18,327.82 L 465.60,324.40 L 468.83,321.17 L 471.86,318.14 L 474.67,315.33 L 477.27,312.73 L 479.65,310.35 L 481.79,308.21 L 483.69,306.31 L 485.35,304.65 L 486.76,303.24 L 487.92,302.08 L 488.83,301.17 L 489.48,300.52 L 489.87,300.13 L 490.00,300.00 Z" fill="none" stroke="#e2703a" stroke-width="2.8"/>
<path d="M 490.00,300.00 L 489.93,295.03 L 489.74,290.06 L 489.41,285.09 L 488.96,280.14 L 488.37,275.20 L 487.66,270.28 L 486.82,265.38 L 485.85,260.50 L 484.75,255.65 L 483.53,250.82 L 482.18,246.04 L 480.70,241.29 L 479.10,236.58 L 477.38,231.91 L 475.54,227.29 L 473.57,222.72 L 471.49,218.20 L 469.29,213.74 L 466.98,209.34 L 464.54,205.00 L 462.00,200.73 L 459.35,196.52 L 456.58,192.38 L 453.71,188.32 L 450.74,184.34 L 447.66,180.43 L 444.48,176.60 L 441.20,172.87 L 437.82,169.21 L 434.35,165.65 L 430.79,162.18 L 427.13,158.80 L 423.40,155.52 L 419.57,152.34 L 415.66,149.26 L 411.68,146.29 L 407.62,143.42 L 403.48,140.65 L 399.27,138.00 L 395.00,135.46 L 390.66,133.02 L 386.26,130.71 L 381.80,128.51 L 377.28,126.43 L 372.71,124.46 L 368.09,122.62 L 363.42,120.90 L 358.71,119.30 L 353.96,117.82 L 349.18,116.47 L 344.35,115.25 L 339.50,114.15 L 334.62,113.18 L 329.72,112.34 L 324.80,111.63 L 319.86,111.04 L 314.91,110.59 L 309.94,110.26 L 304.97,110.07 L 300.00,110.00 L 295.03,110.07 L 290.06,110.26 L 285.09,110.59 L 280.14,111.04 L 275.20,111.63 L 270.28,112.34 L 265.38,113.18 L 260.50,114.15 L 255.65,115.25 L 250.82,116.47 L 246.04,117.82 L 241.29,119.30 L 236.58,120.90 L 231.91,122.62 L 227.29,124.46 L 222.72,126.43 L 218.20,128.51 L 213.74,130.71 L 209.34,133.02 L 205.00,135.46 L 200.73,138.00 L 196.52,140.65 L 192.38,143.42 L 188.32,146.29 L 184.34,149.26 L 180.43,152.34 L 176.60,155.52 L 172.87,158.80 L 169.21,162.18 L 165.65,165.65 L 162.18,169.21 L 158.80,172.87 L 155.52,176.60 L 152.34,180.43 L 149.26,184.34 L 146.29,188.32 L 143.42,192.38 L 140.65,196.52 L 138.00,200.73 L 135.46,205.00 L 133.02,209.34 L 130.71,213.74 L 128.51,218.20 L 126.43,222.72 L 124.46,227.29 L 122.62,231.91 L 120.90,236.58 L 119.30,241.29 L 117.82,246.04 L 116.47,250.82 L 115.25,255.65 L 114.15,260.50 L 113.18,265.38 L 112.34,270.28 L 111.63,275.20 L 111.04,280.14 L 110.59,285.09 L 110.26,290.06 L 110.07,295.03 L 110.00,300.00 L 110.07,304.97 L 110.26,309.94 L 110.59,314.91 L 111.04,319.86 L 111.63,324.80 L 112.34,329.72 L 113.18,334.62 L 114.15,339.50 L 115.25,344.35 L 116.47,349.18 L 117.82,353.96 L 119.30,358.71 L 120.90,363.42 L 122.62,368.09 L 124.46,372.71 L 126.43,377.28 L 128.51,381.80 L 130.71,386.26 L 133.02,390.66 L 135.46,395.00 L 138.00,399.27 L 140.65,403.48 L 143.42,407.62 L 146.29,411.68 L 149.26,415.66 L 152.34,419.57 L 155.52,423.40 L 158.80,427.13 L 162.18,430.79 L 165.65,434.35 L 169.21,437.82 L 172.87,441.20 L 176.60,444.48 L 180.43,447.66 L 184.34,450.74 L 188.32,453.71 L 192.38,456.58 L 196.52,459.35 L 200.73,462.00 L 205.00,464.54 L 209.34,466.98 L 213.74,469.29 L 218.20,471.49 L 222.72,473.57 L 227.29,475.54 L 231.91,477.38 L 236.58,479.10 L 241.29,480.70 L 246.04,482.18 L 250.82,483.53 L 255.65,484.75 L 260.50,485.85 L 265.38,486.82 L 270.28,487.66 L 275.20,488.37 L 280.14,488.96 L 285.09,489.41 L 290.06,489.74 L 295.03,489.93 L 300.00,490.00 L 304.97,489.93 L 309.94,489.74 L 314.91,489.41 L 319.86,488.96 L 324.80,488.37 L 329.72,487.66 L 334.62,486.82 L 339.50,485.85 L 344.35,484.75 L 349.18,483.53 L 353.96,482.18 L 358.71,480.70 L 363.42,479.10 L 368.09,477.38 L 372.71,475.54 L 377.28,473.57 L 381.80,471.49 L 386.26,469.29 L 390.66,466.98 L 395.00,464.54 L 399.27,462.00 L 403.48,459.35 L 407.62,456.58 L 411.68,453.71 L 415.66,450.74 L 419.57,447.66 L 423.40,444.48 L 427.13,441.20 L 430.79,437.82 L 434.35,434.35 L 437.82,430.79 L 441.20,427.13 L 444.48,423.40 L 447.66,419.57 L 450.74,415.66 L 453.71,411.68 L 456.58,407.62 L 459.35,403.48 L 462.00,399.27 L 464.54,395.00 L 466.98,390.66 L 469.29,386.26 L 471.49,381.80 L 473.57,377.28 L 475.54,372.71 L 477.38,368.09 L 479.10,363.42 L 480.70,358.71 L 482.18,353.96 L 483.53,349.18 L 484.75,344.35 L 485.85,339.50 L 486.82,334.62 L 487.66,329.72 L 488.37,324.80 L 488.96,319.86 L 489.41,314.91 L 489.74,309.94 L 489.93,304.97 L 490.00,300.00 Z" fill="none" stroke="#2f6fed" stroke-width="2.8"/>
<path d="M 490.00,300.00 L 489.97,269.26 L 489.87,256.53 L 489.71,246.78 L 489.48,238.57 L 489.19,231.36 L 488.83,224.85 L 488.40,218.89 L 487.91,213.37 L 487.36,208.20 L 486.73,203.34 L 486.05,198.74 L 485.29,194.38 L 484.47,190.23 L 483.58,186.26 L 482.63,182.46 L 481.60,178.83 L 480.51,175.33 L 479.35,171.98 L 478.12,168.75 L 476.81,165.65 L 475.44,162.66 L 474.00,159.78 L 472.48,157.01 L 470.90,154.33 L 469.23,151.76 L 467.50,149.27 L 465.68,146.88 L 463.79,144.58 L 461.82,142.36 L 459.77,140.23 L 457.64,138.18 L 455.42,136.21 L 453.12,134.32 L 450.73,132.50 L 448.24,130.77 L 445.67,129.10 L 442.99,127.52 L 440.22,126.00 L 437.34,124.56 L 434.35,123.19 L 431.25,121.88 L 428.02,120.65 L 424.67,119.49 L 421.17,118.40 L 417.54,117.37 L 413.74,116.42 L 409.77,115.53 L 405.62,114.71 L 401.26,113.95 L 396.66,113.27 L 391.80,112.64 L 386.63,112.09 L 381.11,111.60 L 375.15,111.17 L 368.64,110.81 L 361.43,110.52 L 353.22,110.29 L 343.47,110.13 L 330.74,110.03 L 300.00,110.00 L 269.26,110.03 L 256.53,110.13 L 246.78,110.29 L 238.57,110.52 L 231.36,110.81 L 224.85,111.17 L 218.89,111.60 L 213.37,112.09 L 208.20,112.64 L 203.34,113.27 L 198.74,113.95 L 194.38,114.71 L 190.23,115.53 L 186.26,116.42 L 182.46,117.37 L 178.83,118.40 L 175.33,119.49 L 171.98,120.65 L 168.75,121.88 L 165.65,123.19 L 162.66,124.56 L 159.78,126.00 L 157.01,127.52 L 154.33,129.10 L 151.76,130.77 L 149.27,132.50 L 146.88,134.32 L 144.58,136.21 L 142.36,138.18 L 140.23,140.23 L 138.18,142.36 L 136.21,144.58 L 134.32,146.88 L 132.50,149.27 L 130.77,151.76 L 129.10,154.33 L 127.52,157.01 L 126.00,159.78 L 124.56,162.66 L 123.19,165.65 L 121.88,168.75 L 120.65,171.98 L 119.49,175.33 L 118.40,178.83 L 117.37,182.46 L 116.42,186.26 L 115.53,190.23 L 114.71,194.38 L 113.95,198.74 L 113.27,203.34 L 112.64,208.20 L 112.09,213.37 L 111.60,218.89 L 111.17,224.85 L 110.81,231.36 L 110.52,238.57 L 110.29,246.78 L 110.13,256.53 L 110.03,269.26 L 110.00,300.00 L 110.03,330.74 L 110.13,343.47 L 110.29,353.22 L 110.52,361.43 L 110.81,368.64 L 111.17,375.15 L 111.60,381.11 L 112.09,386.63 L 112.64,391.80 L 113.27,396.66 L 113.95,401.26 L 114.71,405.62 L 115.53,409.77 L 116.42,413.74 L 117.37,417.54 L 118.40,421.17 L 119.49,424.67 L 120.65,428.02 L 121.88,431.25 L 123.19,434.35 L 124.56,437.34 L 126.00,440.22 L 127.52,442.99 L 129.10,445.67 L 130.77,448.24 L 132.50,450.73 L 134.32,453.12 L 136.21,455.42 L 138.18,457.64 L 140.23,459.77 L 142.36,461.82 L 144.58,463.79 L 146.88,465.68 L 149.27,467.50 L 151.76,469.23 L 154.33,470.90 L 157.01,472.48 L 159.78,474.00 L 162.66,475.44 L 165.65,476.81 L 168.75,478.12 L 171.98,479.35 L 175.33,480.51 L 178.83,481.60 L 182.46,482.63 L 186.26,483.58 L 190.23,484.47 L 194.38,485.29 L 198.74,486.05 L 203.34,486.73 L 208.20,487.36 L 213.37,487.91 L 218.89,488.40 L 224.85,488.83 L 231.36,489.19 L 238.57,489.48 L 246.78,489.71 L 256.53,489.87 L 269.26,489.97 L 300.00,490.00 L 330.74,489.97 L 343.47,489.87 L 353.22,489.71 L 361.43,489.48 L 368.64,489.19 L 375.15,488.83 L 381.11,488.40 L 386.63,487.91 L 391.80,487.36 L 396.66,486.73 L 401.26,486.05 L 405.62,485.29 L 409.77,484.47 L 413.74,483.58 L 417.54,482.63 L 421.17,481.60 L 424.67,480.51 L 428.02,479.35 L 431.25,478.12 L 434.35,476.81 L 437.34,475.44 L 440.22,474.00 L 442.99,472.48 L 445.67,470.90 L 448.24,469.23 L 450.73,467.50 L 453.12,465.68 L 455.42,463.79 L 457.64,461.82 L 459.77,459.77 L 461.82,457.64 L 463.79,455.42 L 465.68,453.12 L 467.50,450.73 L 469.23,448.24 L 470.90,445.67 L 472.48,442.99 L 474.00,440.22 L 475.44,437.34 L 476.81,434.35 L 478.12,431.25 L 479.35,428.02 L 480.51,424.67 L 481.60,421.17 L 482.63,417.54 L 483.58,413.74 L 484.47,409.77 L 485.29,405.62 L 486.05,401.26 L 486.73,396.66 L 487.36,391.80 L 487.91,386.63 L 488.40,381.11 L 488.83,375.15 L 489.19,368.64 L 489.48,361.43 L 489.71,353.22 L 489.87,343.47 L 489.97,330.74 L 490.00,300.00 Z" fill="none" stroke="#12897f" stroke-width="2.6"/>
<rect x="110" y="110" width="380" height="380" fill="none" stroke="#1a1a2e" stroke-width="2.8"/>
<text x="450.6" y="157.4" font-size="15" fill="#e2703a" font-weight="600">p=1</text>
<text x="452.0" y="132.0" font-size="15" fill="#2f6fed" font-weight="600">p=2</text>
<text x="478.6" y="195.5" font-size="15" fill="#12897f" font-weight="600">p=4</text>
<text x="500" y="126" font-size="15" fill="#1a1a2e" font-weight="600">p=&#8734;</text>
<line x1="40" y1="555" x2="66" y2="555" stroke="#e2703a" stroke-width="3.2"/>
<text x="76" y="560" font-size="14.5" fill="#1a1a2e">one norm ||v||1 = &#931;|vi| (diamond)</text>
<line x1="40" y1="583" x2="66" y2="583" stroke="#2f6fed" stroke-width="3.2"/>
<text x="76" y="588" font-size="14.5" fill="#1a1a2e">Euclidean / Frobenius norm ||v||2 (circle)</text>
<line x1="40" y1="611" x2="66" y2="611" stroke="#12897f" stroke-width="3.2"/>
<text x="76" y="616" font-size="14.5" fill="#1a1a2e">intermediate p-norm, shown for context</text>
<line x1="40" y1="639" x2="66" y2="639" stroke="#1a1a2e" stroke-width="3.2"/>
<text x="76" y="644" font-size="14.5" fill="#1a1a2e">infinity norm ||v||&#8734; = max|vi| (square)</text>
</svg>
