<svg width="600" height="600" viewBox="0 0 600 600" xmlns="http://www.w3.org/2000/svg">
  <defs>
    <!-- Gradiente vertical en escala de grises: edita stop-color aqui -->
    <linearGradient id="bgGradient" x1="0%" y1="0%" x2="0%" y2="100%">
      <stop offset="0%" stop-color="#FCA3AF"/>
      <stop offset="100%" stop-color="#ff6ec4"/>
    </linearGradient>
    <clipPath id="cardClip">
      <rect x="0" y="0" width="600" height="600" rx="28" ry="28"/>
    </clipPath>
  </defs>

  <g clip-path="url(#cardClip)">
    <rect x="0" y="0" width="600" height="600" fill="url(#bgGradient)"/>

    <circle cx="300" cy="170" r="46" fill="#FFFFFF" opacity="0.12"/>
    <g transform="translate(300,170)">
      <g fill="none" stroke="#FFFFFF" stroke-width="6" stroke-linecap="round" stroke-linejoin="round">
  <path d="M-22 -10 L-22 -22 L-10 -22"/>
  <path d="M10 -22 L22 -22 L22 -10"/>
  <path d="M22 10 L22 22 L10 22"/>
  <path d="M-10 22 L-22 22 L-22 10"/>
  <path d="M-9 -1 L-9 12 L4 12 L4 -1 Z"/>
  <path d="M-9 -1 L-2 -8 L11 -8 L4 -1 Z"/>
  <path d="M4 -1 L11 -8 L11 5 L4 12 Z"/>
</g>
    </g>

    <text x="300" y="285" text-anchor="middle"
          font-family="Arial, Helvetica, sans-serif" font-weight="800"
          font-size="52" fill="#FFFFFF">AR</text>

    <line x1="200" y1="318" x2="400" y2="318" stroke="#FFFFFF" stroke-width="2" opacity="0.7"/>

    <text x="300" y="368" text-anchor="middle"
          font-family="Arial, Helvetica, sans-serif" font-weight="400"
          font-size="25" fill="#FFFFFF" opacity="0.9">Augmented Reality</text>

    <rect x="230" y="446" width="140" height="46" rx="12" ry="12" fill="none" stroke="#FFFFFF" stroke-width="2" opacity="0.85"/>
    <text x="300" y="469" text-anchor="middle" dominant-baseline="central"
          font-family="Arial, Helvetica, sans-serif" font-weight="700"
          font-size="26" fill="#FFFFFF">Explore</text>
  </g>

  <rect x="1.5" y="1.5" width="597" height="597" rx="28" ry="28" fill="none" stroke="#FFFFFF" stroke-opacity="0.1" stroke-width="3"/>
</svg>
